<svg width="24" height="24" viewBox="0 0 24 24" fill="none" xmlns="http://www.w3.org/2000/svg">
<path fill-rule="evenodd" clip-rule="evenodd" d="M9.76817 20.135C10.2459 19.8579 10.8578 20.0205 11.1349 20.4982C11.2228 20.6498 11.349 20.7756 11.5008 20.863C11.6526 20.9504 11.8247 20.9965 11.9999 20.9965C12.1751 20.9965 12.3472 20.9504 12.4991 20.863C12.6509 20.7756 12.777 20.6498 12.8649 20.4982C13.1421 20.0205 13.754 19.8579 14.2317 20.135C14.7094 20.4121 14.8721 21.0241 14.5949 21.5018C14.3312 21.9564 13.9527 22.3338 13.4973 22.5961C13.0419 22.8584 12.5255 22.9965 11.9999 22.9965C11.4744 22.9965 10.958 22.8584 10.5026 22.5961C10.0472 22.3338 9.66866 21.9564 9.40494 21.5018C9.12782 21.0241 9.29044 20.4121 9.76817 20.135Z" fill="#5C5C5C"/>
<path fill-rule="evenodd" clip-rule="evenodd" d="M18.016 7.00013C18.5682 7.00896 19.0087 7.46378 18.9998 8.016C18.9743 9.60967 19.1746 11.1989 19.5946 12.7365C19.7402 13.2692 19.4263 13.8191 18.8935 13.9647C18.3607 14.1102 17.8109 13.7963 17.6653 13.2635C17.1955 11.5439 16.9716 9.76642 17.0001 7.98401C17.0089 7.4318 17.4637 6.9913 18.016 7.00013Z" fill="#5C5C5C"/>
<path fill-rule="evenodd" clip-rule="evenodd" d="M6.55453 5.30438C7.08231 5.46707 7.37827 6.02681 7.21558 6.55459C7.0715 7.02202 6.9988 7.50852 6.99995 7.99766L6.99996 8.00001C6.99996 11.6474 6.21702 14.0654 5.37785 15.6039C5.30175 15.7434 5.22537 15.8753 5.14928 16H17C17.5522 16 18 16.4477 18 17C18 17.5523 17.5522 18 17 18H2.99996C2.55929 18 2.17056 17.7116 2.04286 17.2898C1.91652 16.8725 2.07516 16.4221 2.43364 16.1758C2.43435 16.1753 2.4353 16.1746 2.4365 16.1737C2.4442 16.168 2.46206 16.1544 2.48868 16.1322C2.54189 16.0878 2.63028 16.0091 2.74275 15.8904C2.96718 15.6535 3.29027 15.2544 3.62206 14.6462C4.28282 13.4348 4.9998 11.3531 4.99996 8.00109M2.44375 16.169C2.44383 16.1689 2.44391 16.1689 2.44399 16.1688C2.44399 16.1688 2.44398 16.1688 2.44398 16.1688L2.44375 16.169Z" fill="#5C5C5C"/>
<path fill-rule="evenodd" clip-rule="evenodd" d="M11.6627 0.999221C12.9294 0.938119 14.1888 1.22224 15.3065 1.82122C16.4242 2.42021 17.3582 3.31157 18.0087 4.40008C18.6593 5.4886 19.0019 6.73338 19 8.00148C18.9992 8.55376 18.5508 9.00081 17.9985 8.99999C17.4463 8.99917 16.9992 8.55079 17 7.99851C17.0014 7.09273 16.7566 6.2036 16.292 5.42608C15.8273 4.64857 15.1602 4.01189 14.3618 3.58404C13.5634 3.15619 12.6638 2.95325 11.7591 2.9969C10.8544 3.04054 9.9785 3.32913 9.22503 3.83184C8.76561 4.13836 8.1447 4.01441 7.83818 3.55499C7.53166 3.09558 7.65561 2.47466 8.11503 2.16814C9.16989 1.46435 10.3961 1.06032 11.6627 0.999221Z" fill="#5C5C5C"/>
<path fill-rule="evenodd" clip-rule="evenodd" d="M1.29289 1.29289C1.68342 0.902369 2.31658 0.902369 2.70711 1.29289L22.7071 21.2929C23.0976 21.6834 23.0976 22.3166 22.7071 22.7071C22.3166 23.0976 21.6834 23.0976 21.2929 22.7071L1.29289 2.70711C0.902369 2.31658 0.902369 1.68342 1.29289 1.29289Z" fill="#5C5C5C"/>
</svg>
