<svg width="24" height="24" viewBox="0 0 24 24" fill="none" xmlns="http://www.w3.org/2000/svg">
<path fill-rule="evenodd" clip-rule="evenodd" d="M12.8333 3.07003C12.1163 2.94884 11.3816 2.98548 10.6802 3.1774C9.97889 3.36932 9.32785 3.7119 8.7725 4.18126C8.21714 4.65061 7.77084 5.23545 7.4647 5.89498C7.15857 6.55452 6.99997 7.2729 6.99996 8.00003L5.99996 8.00001L6.99996 8.00003C6.99996 11.6474 6.21702 14.0654 5.37785 15.6039C5.30175 15.7434 5.22537 15.8753 5.14928 16H18.8504C18.3141 15.1212 17.7676 13.8887 17.409 12.2088C17.2937 11.6687 17.6381 11.1374 18.1782 11.022C18.7183 10.9067 19.2496 11.2511 19.3649 11.7912C19.7425 13.56 20.3412 14.6831 20.8122 15.3446C21.0487 15.6769 21.2562 15.8971 21.3933 16.0268C21.4619 16.0918 21.513 16.1343 21.5416 16.1569C21.5546 16.1672 21.563 16.1734 21.5662 16.1757C21.9247 16.422 22.0834 16.8724 21.9571 17.2897C21.8294 17.7115 21.4406 18 21 18H2.99996C2.55929 18 2.17056 17.7116 2.04286 17.2898C1.91652 16.8725 2.07516 16.4221 2.43364 16.1758C2.43749 16.1732 2.44136 16.1706 2.44526 16.168L2.99996 17C2.44526 16.168 2.44461 16.1684 2.44398 16.1688L2.44277 16.1696L2.44054 16.1711L2.4369 16.1736L2.43274 16.1765C2.43209 16.1769 2.43203 16.177 2.43252 16.1766C2.43277 16.1765 2.43314 16.1762 2.43364 16.1758C2.43434 16.1753 2.4353 16.1746 2.4365 16.1737C2.4442 16.168 2.46206 16.1544 2.48868 16.1322C2.54189 16.0878 2.63028 16.0091 2.74275 15.8904C2.96718 15.6535 3.29027 15.2545 3.62206 14.6462C4.28289 13.4346 4.99996 11.3527 4.99996 8.00001V8C4.99997 6.98202 5.22201 5.9763 5.6506 5.05294C6.07919 4.12959 6.70401 3.31082 7.48151 2.65372C8.25901 1.99663 9.17046 1.51702 10.1523 1.24833C11.1342 0.979638 12.1629 0.928336 13.1666 1.098C13.7112 1.19005 14.078 1.70612 13.986 2.25068C13.8939 2.79524 13.3778 3.16207 12.8333 3.07003Z" fill="#5C5C5C"/>
<path fill-rule="evenodd" clip-rule="evenodd" d="M9.76817 20.135C10.2459 19.8579 10.8578 20.0205 11.1349 20.4982C11.2228 20.6498 11.349 20.7756 11.5008 20.863C11.6526 20.9504 11.8247 20.9965 11.9999 20.9965C12.1751 20.9965 12.3472 20.9504 12.4991 20.863C12.6509 20.7756 12.777 20.6498 12.8649 20.4982C13.1421 20.0205 13.754 19.8579 14.2317 20.135C14.7094 20.4121 14.8721 21.0241 14.5949 21.5018C14.3312 21.9564 13.9527 22.3338 13.4973 22.5961C13.0419 22.8584 12.5255 22.9965 11.9999 22.9965C11.4744 22.9965 10.958 22.8584 10.5026 22.5961C10.0472 22.3338 9.66866 21.9564 9.40494 21.5018C9.12782 21.0241 9.29044 20.4121 9.76817 20.135Z" fill="#5C5C5C"/>
<path fill-rule="evenodd" clip-rule="evenodd" d="M18 1C18.5523 1 19 1.44772 19 2V8C19 8.55228 18.5523 9 18 9C17.4477 9 17 8.55228 17 8V2C17 1.44772 17.4477 1 18 1Z" fill="#5C5C5C"/>
<path fill-rule="evenodd" clip-rule="evenodd" d="M14 5C14 4.44772 14.4477 4 15 4H21C21.5523 4 22 4.44772 22 5C22 5.55228 21.5523 6 21 6H15C14.4477 6 14 5.55228 14 5Z" fill="#5C5C5C"/>
</svg>
