<svg width="24" height="24" viewBox="0 0 24 24" fill="none" xmlns="http://www.w3.org/2000/svg">
<path fill-rule="evenodd" clip-rule="evenodd" d="M5.5 15C4.11929 15 3 16.1193 3 17.5C3 18.8807 4.11929 20 5.5 20C6.88071 20 8 18.8807 8 17.5C8 16.1193 6.88071 15 5.5 15ZM1 17.5C1 15.0147 3.01472 13 5.5 13C7.98528 13 10 15.0147 10 17.5C10 19.9853 7.98528 22 5.5 22C3.01472 22 1 19.9853 1 17.5Z" fill="#5C5C5C"/>
<path fill-rule="evenodd" clip-rule="evenodd" d="M18.5 15C17.1193 15 16 16.1193 16 17.5C16 18.8807 17.1193 20 18.5 20C19.8807 20 21 18.8807 21 17.5C21 16.1193 19.8807 15 18.5 15ZM14 17.5C14 15.0147 16.0147 13 18.5 13C20.9853 13 23 15.0147 23 17.5C23 19.9853 20.9853 22 18.5 22C16.0147 22 14 19.9853 14 17.5Z" fill="#5C5C5C"/>
<path fill-rule="evenodd" clip-rule="evenodd" d="M13.5858 3.58579C13.9609 3.21071 14.4696 3 15 3C15.5304 3 16.0391 3.21071 16.4142 3.58579C16.7893 3.96086 17 4.46957 17 5C17 5.53043 16.7893 6.03914 16.4142 6.41421C16.0391 6.78929 15.5304 7 15 7C14.4696 7 13.9609 6.78929 13.5858 6.41421C13.2107 6.03914 13 5.53043 13 5C13 4.46957 13.2107 3.96086 13.5858 3.58579ZM13.1688 7.01436C13.4397 7.06076 13.6796 7.21661 13.8321 7.4453L15.5352 10H17C17.5523 10 18 10.4477 18 11C18 11.5523 17.5523 12 17 12H15C14.6656 12 14.3534 11.8329 14.168 11.5547L12.7543 9.43426L10.5224 11.1082L12.7071 13.2929C12.8946 13.4804 13 13.7348 13 14V17.5C13 18.0523 12.5523 18.5 12 18.5C11.4477 18.5 11 18.0523 11 17.5V14.4142L8.2929 11.7071C8.08791 11.5021 7.98197 11.2183 8.00252 10.9291C8.02307 10.6399 8.16809 10.3739 8.4 10.2L12.4 7.2C12.6199 7.03509 12.8979 6.96795 13.1688 7.01436Z" fill="#5C5C5C"/>
</svg>
