<svg width="24" height="24" viewBox="0 0 24 24" fill="none" xmlns="http://www.w3.org/2000/svg">
<path d="M22.61 11.3L21.54 7.03C21.32 6.17 20.82 5.4 20.12 4.85C19.42 4.3 18.55 4 17.66 4H4C3.2 4 2.45 4.31 1.88 4.88C1.31 5.45 1 6.2 1 7V17C1 17.55 1.45 18 2 18H3.05C3.3 19.69 4.74 21 6.5 21C8.26 21 9.7 19.69 9.95 18H13.05C13.3 19.69 14.74 21 16.5 21C18.26 21 19.7 19.69 19.95 18H21C21.46 18 21.86 17.69 21.97 17.24L22.61 14.7C22.89 13.59 22.89 12.41 22.61 11.3ZM6.5 19C5.67 19 5 18.33 5 17.5C5 16.67 5.67 16 6.5 16C7.33 16 8 16.67 8 17.5C8 18.33 7.33 19 6.5 19ZM16.5 19C15.67 19 15 18.33 15 17.5C15 16.67 15.67 16 16.5 16C17.33 16 18 16.67 18 17.5C18 18.33 17.33 19 16.5 19ZM20.67 14.22L20.22 16H19.65C19.09 14.82 17.89 14 16.5 14C15.11 14 13.92 14.82 13.35 16H9.65C9.09 14.82 7.89 14 6.5 14C5.11 14 3.92 14.82 3.35 16H3V7C3 6.73 3.1 6.48 3.29 6.29C3.48 6.1 3.73 6 4 6H17.66C18.1 6 18.54 6.15 18.89 6.42C19.24 6.69 19.49 7.08 19.6 7.51L20.67 11.78C20.87 12.58 20.87 13.42 20.67 14.22Z" fill="#5C5C5C"/>
</svg>
