<svg width="24" height="24" viewBox="0 0 24 24" fill="none" xmlns="http://www.w3.org/2000/svg">
<path d="M20.3428 19.2428L3.67138 13.4286C3.39936 13.3337 3.16239 13.1587 2.99157 12.9267C2.82076 12.6947 2.72408 12.4165 2.71423 12.1286V10.5714C2.71541 10.2761 2.80808 9.98841 2.97948 9.74794C3.15089 9.50746 3.39261 9.32601 3.67138 9.22856L20.3428 3.42856C20.4498 3.3924 20.5639 3.38215 20.6757 3.39865C20.7874 3.41514 20.8937 3.45791 20.9857 3.52344C21.0778 3.58898 21.1529 3.6754 21.2051 3.77563C21.2572 3.87585 21.2848 3.98701 21.2857 4.09999V18.5714C21.2848 18.6844 21.2572 18.7955 21.2051 18.8958C21.1529 18.996 21.0778 19.0824 20.9857 19.148C20.8937 19.2135 20.7874 19.2563 20.6757 19.2728C20.5639 19.2892 20.4498 19.279 20.3428 19.2428Z" stroke="#5C5C5C" stroke-width="2" stroke-linecap="round" stroke-linejoin="round"/>
<path d="M14.1142 17.1C13.9939 18.0923 13.4999 19.0015 12.7328 19.6423C11.9656 20.2831 10.9831 20.6074 9.98517 20.5492C8.98728 20.4909 8.04913 20.0544 7.36178 19.3287C6.67444 18.6029 6.2896 17.6424 6.28564 16.6428V14.3714" stroke="#5C5C5C" stroke-width="2" stroke-linecap="round" stroke-linejoin="round"/>
</svg>
