<svg width="24" height="24" viewBox="0 0 24 24" fill="none" xmlns="http://www.w3.org/2000/svg">
<path d="M19.89 22.93C19.8 22.93 19.71 22.93 19.61 22.92C16.38 22.57 13.24 21.45 10.53 19.69C8.01003 18.09 5.83003 15.91 4.23003 13.39C2.47003 10.67 1.35003 7.52 1.01003 4.29C0.970027 3.86 1.02003 3.45 1.15003 3.05C1.28003 2.65 1.50003 2.29 1.78003 1.98C2.06003 1.67 2.40003 1.43 2.78003 1.26C3.17003 1.09 3.58003 1 4.00003 1H7.00003C7.70003 1 8.42003 1.25 8.98003 1.73C9.53003 2.2 9.89003 2.86 9.99003 3.58C10.11 4.47 10.33 5.35 10.64 6.18C10.84 6.72 10.89 7.3 10.76 7.86C10.64 8.42 10.36 8.94 9.96003 9.34L9.24003 10.06C10.42 11.9 11.98 13.47 13.83 14.65L14.55 13.93C14.96 13.52 15.48 13.24 16.04 13.13C16.6 13.01 17.18 13.05 17.72 13.25C18.55 13.56 19.43 13.78 20.31 13.9C21.05 14 21.71 14.37 22.19 14.93C22.66 15.49 22.92 16.2 22.9 16.93V19.92C22.9 20.34 22.82 20.74 22.65 21.13C22.48 21.51 22.23 21.86 21.93 22.14C21.62 22.42 21.26 22.64 20.86 22.77C20.54 22.88 20.22 22.93 19.89 22.93ZM7.02003 3H7.01003H4.00003C3.86003 3 3.73003 3.03 3.60003 3.09C3.47003 3.14 3.35003 3.22 3.26003 3.32C3.16003 3.42 3.09003 3.54 3.05003 3.68C3.01003 3.81 2.99003 3.95 3.00003 4.09C3.31003 7 4.32003 9.84 5.91003 12.31C7.36003 14.59 9.33003 16.56 11.61 18.01C14.07 19.61 16.91 20.61 19.81 20.93C19.93 20.94 20.07 20.92 20.2 20.88C20.33 20.84 20.45 20.76 20.56 20.67C20.67 20.58 20.75 20.46 20.8 20.33C20.86 20.2 20.88 20.06 20.88 19.92V16.92C20.88 16.91 20.88 16.9 20.88 16.9C20.89 16.65 20.8 16.42 20.64 16.23C20.48 16.04 20.26 15.92 20.02 15.89C19 15.76 17.98 15.5 17 15.14C16.82 15.07 16.62 15.06 16.44 15.1C16.25 15.14 16.08 15.23 15.94 15.37L14.68 16.64C14.36 16.96 13.87 17.02 13.48 16.8C10.82 15.29 8.62003 13.08 7.10003 10.43C6.89003 10.01 6.95003 9.52 7.27003 9.2L8.54003 7.93C8.67003 7.8 8.76003 7.63 8.80003 7.44C8.84003 7.25 8.83003 7.06 8.76003 6.88C8.39003 5.9 8.14003 4.88 8.00003 3.85C7.97003 3.62 7.85003 3.4 7.67003 3.24C7.49003 3.09 7.26003 3 7.02003 3Z" fill="#5C5C5C"/>
</svg>
