<svg width="24" height="24" viewBox="0 0 24 24" fill="none" xmlns="http://www.w3.org/2000/svg">
<circle cx="12" cy="12" r="9.1" stroke="#858585" stroke-width="1.8"/>
<mask id="path-2-inside-1_126_2007" fill="white">
<path fill-rule="evenodd" clip-rule="evenodd" d="M5.17346 19.3072C5.57782 15.8957 8.4801 13.25 12.0003 13.25C15.5205 13.25 18.4228 15.8957 18.8272 19.3072C17.04 20.9776 14.6396 22 12.0003 22C9.36107 22 6.96062 20.9776 5.17346 19.3072Z"/>
</mask>
<path d="M5.17346 19.3072L3.38597 19.0953L3.27873 20.0001L3.94435 20.6222L5.17346 19.3072ZM18.8272 19.3072L20.0563 20.6222L20.7219 20.0001L20.6147 19.0953L18.8272 19.3072ZM6.96095 19.519C7.25922 17.0026 9.40305 15.05 12.0003 15.05V11.45C7.55715 11.45 3.89642 14.7888 3.38597 19.0953L6.96095 19.519ZM12.0003 15.05C14.5976 15.05 16.7414 17.0026 17.0397 19.519L20.6147 19.0953C20.1042 14.7888 16.4435 11.45 12.0003 11.45V15.05ZM17.5981 17.9921C16.1311 19.3633 14.1654 20.2 12.0003 20.2V23.8C15.1137 23.8 17.949 22.5918 20.0563 20.6222L17.5981 17.9921ZM12.0003 20.2C9.83524 20.2 7.86956 19.3633 6.40257 17.9921L3.94435 20.6222C6.05169 22.5918 8.88691 23.8 12.0003 23.8V20.2Z" fill="#858585" mask="url(#path-2-inside-1_126_2007)"/>
<circle cx="12.0001" cy="8.875" r="2.85" stroke="#858585" stroke-width="1.8"/>
</svg>
