<svg width="24" height="26" viewBox="0 0 24 26" fill="none" xmlns="http://www.w3.org/2000/svg">
<path fill-rule="evenodd" clip-rule="evenodd" d="M10.9702 1.05796C11.0443 1.02646 11.2271 0.951037 11.4415 0.951035C11.6836 0.951031 11.885 1.04906 11.9531 1.0822L11.9533 1.08231C12.061 1.13467 12.1718 1.20136 12.2792 1.27257C12.4964 1.41665 12.7543 1.61598 13.034 1.85954C13.5955 2.34839 14.2834 3.04893 14.9549 3.92135C16.29 5.65602 17.6206 8.15014 17.6633 11.0673C17.6739 11.7931 17.5984 12.5842 17.466 13.3971C18.3384 13.9138 19.0005 14.744 19.494 15.6368C20.0437 16.6315 20.4261 17.7787 20.667 18.8663C20.9079 19.9538 21.0162 21.022 20.9947 21.8733C20.984 22.2949 20.9408 22.6984 20.8486 23.0368C20.8026 23.2061 20.7368 23.3874 20.6376 23.5546C20.5408 23.7178 20.3805 23.9204 20.1236 24.0489C19.7065 24.2574 19.2739 24.1755 19.009 24.0961C18.7148 24.0078 18.4148 23.857 18.136 23.6922C17.5732 23.3597 16.952 22.8827 16.3913 22.4155C15.902 22.0077 15.4385 21.5902 15.0708 21.2486C14.8855 21.6893 14.7355 22.0199 14.6437 22.2036L14.4088 22.6736H13.8834H12.3758V24.2654C12.3758 24.7349 11.9952 25.1154 11.5258 25.1154C11.0564 25.1154 10.6758 24.7349 10.6758 24.2654V22.6736H8.99982H8.6478L8.39885 22.4248C8.27886 22.3048 8.19256 22.1575 8.14402 22.0709C8.08349 21.9629 8.02082 21.836 7.95784 21.6991C7.94352 21.668 7.92894 21.6358 7.91414 21.6027C7.62886 21.8605 7.3103 22.1402 6.97997 22.4155C6.41927 22.8827 5.798 23.3597 5.23524 23.6923C4.95642 23.857 4.65644 24.0078 4.3622 24.0961C4.09728 24.1755 3.6647 24.2574 3.24757 24.0489C2.99071 23.9204 2.83041 23.7178 2.73359 23.5546C2.63444 23.3874 2.56863 23.2061 2.52256 23.0368C2.43043 22.6984 2.38721 22.2949 2.37655 21.8733C2.35502 21.022 2.46328 19.9538 2.70416 18.8663C2.94507 17.7787 3.32749 16.6315 3.87724 15.6368C4.29112 14.888 4.82362 14.1833 5.49932 13.6705C5.31452 12.7069 5.19817 11.7887 5.21993 11.0546C5.31437 7.86761 6.63061 5.37611 7.97357 3.69193C8.6451 2.84978 9.33083 2.19951 9.89182 1.75353C10.1714 1.53122 10.4289 1.35263 10.6464 1.22458C10.7542 1.16116 10.8641 1.10304 10.9702 1.05796ZM13.3391 20.9736H12.3758V14.9867C12.3758 14.5173 11.9952 14.1367 11.5258 14.1367C11.0564 14.1367 10.6758 14.5173 10.6758 14.9867V20.9736H9.49538C9.39162 20.7468 9.26299 20.4352 9.11756 20.0542C8.8211 19.2777 8.46817 18.2481 8.1319 17.1382C7.79551 16.0278 7.47933 14.8486 7.25341 13.771C7.02442 12.6787 6.9002 11.7456 6.91918 11.105C7.00006 8.37583 8.12564 6.22797 9.30273 4.7518C9.89123 4.01378 10.4851 3.45363 10.9497 3.08425C11.1353 2.93669 11.2947 2.82401 11.4197 2.74436C11.551 2.83733 11.7201 2.96958 11.9177 3.14168C12.3971 3.55901 13.007 4.17785 13.6077 4.95825C14.8169 6.52922 15.9281 8.67448 15.9635 11.0922C15.989 12.8338 15.4177 15.1629 14.7437 17.2408C14.2233 18.845 13.6651 20.23 13.3391 20.9736ZM15.7423 19.5438C15.833 19.6312 15.9428 19.7361 16.0678 19.8536C16.4421 20.2054 16.9477 20.6662 17.4796 21.1095C18.0177 21.5579 18.5563 21.966 19.0008 22.2287C19.0954 22.2846 19.1796 22.3301 19.2532 22.3665C19.2743 22.2242 19.2898 22.0453 19.2952 21.8303C19.3127 21.1393 19.2235 20.2104 19.0073 19.2339C18.791 18.2576 18.4565 17.274 18.0061 16.4592C17.7267 15.9536 17.418 15.5403 17.0876 15.231C16.8735 16.1053 16.6195 16.9676 16.3607 17.7653C16.1561 18.3961 15.945 18.9969 15.7423 19.5438ZM6.50492 17.6311C6.75241 18.448 7.00979 19.2265 7.25062 19.9032C6.88228 20.2481 6.39898 20.6867 5.89167 21.1095C5.35354 21.5579 4.81494 21.966 4.37043 22.2287C4.27578 22.2846 4.19163 22.3302 4.118 22.3665C4.09694 22.2242 4.08144 22.0453 4.076 21.8303C4.05853 21.1393 4.14765 20.2104 4.36394 19.2339C4.5802 18.2576 4.91473 17.274 5.3651 16.4592C5.5443 16.135 5.73553 15.8487 5.93681 15.6034C6.11128 16.2856 6.30547 16.9727 6.50492 17.6311ZM11.6351 2.62253C11.654 2.6145 11.6521 2.61703 11.6337 2.62311L11.6351 2.62253ZM11.2125 2.61241C11.1905 2.60399 11.1878 2.60036 11.2095 2.61095L11.2125 2.61241ZM3.80973 22.4823C3.80989 22.4821 3.81382 22.4814 3.82104 22.481C3.81319 22.4824 3.80958 22.4826 3.80973 22.4823ZM19.5502 22.481C19.5574 22.4814 19.5613 22.4821 19.5615 22.4823C19.5616 22.4825 19.5606 22.4825 19.5586 22.4823C19.5568 22.4821 19.554 22.4817 19.5502 22.481ZM12.7559 9.12623C12.7559 9.80561 12.2052 10.3564 11.5258 10.3564C10.8464 10.3564 10.2957 9.80561 10.2957 9.12623C10.2957 8.44684 10.8464 7.8961 11.5258 7.8961C12.2052 7.8961 12.7559 8.44684 12.7559 9.12623ZM14.4559 9.12623C14.4559 10.7445 13.1441 12.0564 11.5258 12.0564C9.90754 12.0564 8.59568 10.7445 8.59568 9.12623C8.59568 7.50796 9.90754 6.1961 11.5258 6.1961C13.1441 6.1961 14.4559 7.50796 14.4559 9.12623Z" fill="#5C5C5C"/>
</svg>
