<svg width="24" height="24" viewBox="0 0 24 24" fill="none" xmlns="http://www.w3.org/2000/svg">
<g clip-path="url(#clip0_252_6916)">
<path d="M5.31891 14.5034L4.4835 17.6221L1.43011 17.6867C0.517594 15.9941 0 14.0577 0 11.9999C0 10.01 0.483938 8.1335 1.34175 6.4812H1.34241L4.06078 6.97957L5.25159 9.68163C5.00236 10.4082 4.86652 11.1882 4.86652 11.9999C4.86661 12.8808 5.02617 13.7247 5.31891 14.5034Z" fill="#FBBB00"/>
<path d="M23.7905 9.75824C23.9284 10.4841 24.0002 11.2338 24.0002 12C24.0002 12.8591 23.9099 13.6971 23.7378 14.5055C23.1536 17.2563 21.6273 19.6582 19.5128 21.358L19.5121 21.3574L16.0882 21.1826L15.6036 18.1576C17.0067 17.3347 18.1032 16.047 18.6807 14.5055H12.264V9.75824H18.7744H23.7905Z" fill="#518EF8"/>
<path d="M19.5118 21.3574L19.5125 21.3581C17.456 23.011 14.8437 24.0001 11.9999 24.0001C7.43005 24.0001 3.45688 21.4458 1.43005 17.6869L5.31885 14.5036C6.33224 17.2082 8.94126 19.1335 11.9999 19.1335C13.3146 19.1335 14.5463 18.7781 15.6032 18.1577L19.5118 21.3574Z" fill="#28B446"/>
<path d="M19.6597 2.76263L15.7722 5.94525C14.6784 5.26153 13.3854 4.86656 12.0001 4.86656C8.87219 4.86656 6.21437 6.88017 5.25175 9.68175L1.34251 6.48131H1.34186C3.33901 2.63077 7.3623 0 12.0001 0C14.9117 0 17.5814 1.03716 19.6597 2.76263Z" fill="#F14336"/>
</g>
<defs>
<clipPath id="clip0_252_6916">
<rect width="24" height="24" fill="white"/>
</clipPath>
</defs>
</svg>
