<svg width="24" height="24" viewBox="0 0 24 24" fill="none" xmlns="http://www.w3.org/2000/svg">
<path d="M4.22222 2C2.99444 2 2 2.99444 2 4.22222V19.7778C2 21.0056 2.99444 22 4.22222 22H19.7778C21.0056 22 22 21.0056 22 19.7778V4.22222C22 2.99444 21.0056 2 19.7778 2H4.22222ZM4.22222 4.22222H19.7778V19.7778H4.22222V4.22222ZM7.31033 5.6849C6.35811 5.6849 5.78689 6.25731 5.78689 7.01953C5.78689 7.78175 6.35818 8.352 7.21484 8.352C8.16707 8.352 8.73828 7.78175 8.73828 7.01953C8.73828 6.25731 8.167 5.6849 7.31033 5.6849ZM5.86285 9.77778V17.5556H8.66667V9.77778H5.86285ZM10.98 9.77778V17.5556H13.7839V13.3043C13.7839 12.0387 14.6868 11.8568 14.9579 11.8568C15.229 11.8568 15.954 12.1287 15.954 13.3043V17.5556H18.6667V13.3043C18.6667 10.8631 17.5819 9.77778 16.2253 9.77778C14.8686 9.77778 14.145 10.2295 13.7839 10.8628V9.77778H10.98Z" fill="#5C5C5C"/>
</svg>
