<svg width="19" height="22" viewBox="0 0 19 22" fill="none" xmlns="http://www.w3.org/2000/svg">
<path d="M16.6339 4.70502C16.486 4.62827 16.3419 4.54414 16.2023 4.45294C15.7965 4.18367 15.4243 3.86638 15.094 3.50791C14.2674 2.55875 13.9586 1.59584 13.8449 0.921662H13.8495C13.7545 0.362065 13.7938 0 13.7997 0H10.0348V14.61C10.0348 14.8062 10.0348 15 10.0266 15.1916C10.0266 15.2154 10.0243 15.2374 10.0229 15.2631C10.0229 15.2737 10.0229 15.2847 10.0206 15.2957C10.0206 15.2984 10.0206 15.3012 10.0206 15.3039C9.98096 15.8281 9.81352 16.3345 9.53305 16.7785C9.25258 17.2225 8.86768 17.5906 8.4122 17.8503C7.9375 18.1213 7.40059 18.2635 6.85445 18.2628C5.10032 18.2628 3.67865 16.8273 3.67865 15.0546C3.67865 13.2818 5.10032 11.8464 6.85445 11.8464C7.18649 11.8461 7.5165 11.8985 7.83221 12.0018L7.83678 8.15472C6.87836 8.03048 5.90469 8.10692 4.97718 8.37922C4.04967 8.65152 3.18847 9.11377 2.44789 9.73681C1.79897 10.3026 1.25342 10.9778 0.835786 11.7318C0.676859 12.0068 0.077231 13.1118 0.00461794 14.9052C-0.0410506 15.9231 0.263559 16.9777 0.408785 17.4135V17.4227C0.500122 17.6793 0.854053 18.5552 1.43085 19.2935C1.89595 19.8858 2.44546 20.406 3.06167 20.8375V20.8284L3.07081 20.8375C4.89344 22.0805 6.91427 21.9989 6.91427 21.9989C7.26409 21.9847 8.43595 21.9989 9.76673 21.366C11.2427 20.6643 12.083 19.6189 12.083 19.6189C12.6199 18.9943 13.0467 18.2824 13.3453 17.5139C13.686 16.6151 13.7997 15.5372 13.7997 15.1064V7.35542C13.8454 7.38292 14.4537 7.78669 14.4537 7.78669C14.4537 7.78669 15.3301 8.35042 16.6974 8.71752C17.6784 8.97876 19 9.03376 19 9.03376V5.28295C18.5369 5.33336 17.5966 5.1867 16.6339 4.70502Z" fill="#5C5C5C"/>
</svg>
