<svg width="25" height="24" viewBox="0 0 25 24" fill="none" xmlns="http://www.w3.org/2000/svg">
<path d="M9.26003 21.96C6.66003 21.96 4.00003 21.27 1.51003 19.89C1.10003 19.67 0.910027 19.19 1.03003 18.75C1.15003 18.3 1.55003 18.01 2.03003 18.02C3.72003 18.08 5.39003 17.76 6.91003 17.05C3.20003 14.75 2.24003 11.51 2.13003 9.05999C1.99003 6.10999 3.04003 3.70999 3.09003 3.60999C3.23003 3.27999 3.55003 3.04999 3.90003 3.01999C4.25003 2.97999 4.61003 3.14999 4.82003 3.43999C5.73003 4.73999 6.96003 5.79999 8.38003 6.51999C9.51003 7.08999 10.74 7.42999 12 7.51999C11.99 6.40999 12.32 5.32999 12.95 4.40999C13.58 3.47999 14.47 2.76999 15.53 2.36999C16.58 1.96999 17.72 1.89999 18.81 2.16999C19.68 2.38999 20.47 2.80999 21.13 3.39999C21.94 3.09999 22.71 2.69999 23.42 2.19999C23.76 1.95999 24.21 1.95999 24.56 2.18999C24.91 2.41999 25.07 2.84999 24.97 3.24999C24.63 4.65999 23.94 5.94999 22.97 7.01999C22.99 7.18999 23 7.34999 23 7.50999C23 12.99 20.57 17.56 16.34 20.05C14.18 21.33 11.75 21.96 9.26003 21.96ZM5.96003 19.53C9.21003 20.37 12.54 19.97 15.33 18.33C18.93 16.21 21 12.27 21 7.50999C21 7.30999 20.98 7.08999 20.94 6.85999C20.88 6.52999 20.98 6.19999 21.22 5.96999C21.44 5.74999 21.65 5.51999 21.84 5.26999C21.61 5.34999 21.38 5.42999 21.15 5.49999C20.78 5.60999 20.37 5.49999 20.11 5.19999C19.64 4.65999 19.02 4.27999 18.33 4.10999C17.63 3.93999 16.91 3.97999 16.24 4.22999C15.57 4.48999 15 4.92999 14.6 5.52999C14.2 6.11999 13.99 6.81999 14 7.52999V8.53999C14 9.07999 13.57 9.52999 13.03 9.53999C11.13 9.59999 9.19003 9.15999 7.48003 8.29999C6.34003 7.71999 5.29003 6.95999 4.40003 6.04999C3.80003 8.59999 3.56003 13.5 9.41003 16.1C9.74003 16.25 9.97003 16.56 10 16.92C10.03 17.28 9.87003 17.63 9.57003 17.84C8.44003 18.6 7.23003 19.17 5.96003 19.53Z" fill="#5C5C5C"/>
</svg>
