<svg width="24" height="24" viewBox="0 0 24 24" fill="none" xmlns="http://www.w3.org/2000/svg">
<path d="M19 22H5C3.35 22 2 20.65 2 19V13C2 11.35 3.35 10 5 10H19C20.65 10 22 11.35 22 13V19C22 20.65 20.65 22 19 22ZM5 12C4.45 12 4 12.45 4 13V19C4 19.55 4.45 20 5 20H19C19.55 20 20 19.55 20 19V13C20 12.45 19.55 12 19 12H5Z" fill="#5C5C5C"/>
<path d="M12 8C10.35 8 9 6.65 9 5C9 3.35 10.35 2 12 2C13.65 2 15 3.35 15 5C15 6.65 13.65 8 12 8ZM12 4C11.45 4 11 4.45 11 5C11 5.55 11.45 6 12 6C12.55 6 13 5.55 13 5C13 4.45 12.55 4 12 4Z" fill="#5C5C5C"/>
<path d="M12 12C11.45 12 11 11.55 11 11V7C11 6.45 11.45 6 12 6C12.55 6 13 6.45 13 7V11C13 11.55 12.55 12 12 12Z" fill="#5C5C5C"/>
<path d="M8 17C7.73 17 7.48 16.9 7.29 16.71C7.1 16.52 7 16.27 7 16C7 15.87 7.03 15.74 7.08 15.62C7.13 15.49 7.2 15.39 7.29 15.29C7.57 15.01 8.01 14.93 8.38 15.08C8.5 15.13 8.61 15.2 8.71 15.29C8.8 15.39 8.87 15.5 8.92 15.62C8.97 15.74 9 15.87 9 16C9 16.27 8.9 16.52 8.71 16.71C8.52 16.9 8.27 17 8 17Z" fill="#5C5C5C"/>
<path d="M16 17C15.73 17 15.48 16.9 15.29 16.71C15.1 16.52 15 16.27 15 16C15 15.87 15.03 15.74 15.08 15.62C15.13 15.49 15.2 15.39 15.29 15.29C15.52 15.06 15.87 14.95 16.19 15.02C16.26 15.03 16.32 15.05 16.38 15.08C16.44 15.1 16.5 15.13 16.56 15.17C16.61 15.2 16.66 15.25 16.71 15.29C16.8 15.39 16.87 15.49 16.92 15.62C16.97 15.74 17 15.87 17 16C17 16.27 16.9 16.52 16.71 16.71C16.52 16.9 16.27 17 16 17Z" fill="#5C5C5C"/>
</svg>
