<svg width="24" height="24" viewBox="0 0 24 24" fill="none" xmlns="http://www.w3.org/2000/svg">
<path fill-rule="evenodd" clip-rule="evenodd" d="M12 7C10.3431 7 9 8.34315 9 10V16C9 17.6569 10.3431 19 12 19C13.6569 19 15 17.6569 15 16V10C15 8.34315 13.6569 7 12 7ZM7 10C7 7.23858 9.23858 5 12 5C14.7614 5 17 7.23858 17 10V16C17 18.7614 14.7614 21 12 21C9.23858 21 7 18.7614 7 16V10Z" fill="#5C5C5C"/>
<path fill-rule="evenodd" clip-rule="evenodd" d="M19.832 6.44528C20.1384 6.90481 20.0142 7.52568 19.5547 7.83203L16.5547 9.83203C16.0952 10.1384 15.4743 10.0142 15.1679 9.55468C14.8616 9.09516 14.9858 8.47429 15.4453 8.16793L18.4453 6.16793C18.9048 5.86158 19.5257 5.98576 19.832 6.44528Z" fill="#5C5C5C"/>
<path fill-rule="evenodd" clip-rule="evenodd" d="M4.16793 6.44528C4.47429 5.98576 5.09516 5.86158 5.55468 6.16793L8.55468 8.16793C9.01421 8.47429 9.13839 9.09516 8.83203 9.55468C8.52568 10.0142 7.90481 10.1384 7.44528 9.83203L4.44528 7.83203C3.98576 7.52568 3.86158 6.90481 4.16793 6.44528Z" fill="#5C5C5C"/>
<path fill-rule="evenodd" clip-rule="evenodd" d="M15.1679 16.4453C15.4743 15.9858 16.0952 15.8616 16.5547 16.1679L19.5547 18.1679C20.0142 18.4743 20.1384 19.0952 19.832 19.5547C19.5257 20.0142 18.9048 20.1384 18.4453 19.832L15.4453 17.832C14.9858 17.5257 14.8616 16.9048 15.1679 16.4453Z" fill="#5C5C5C"/>
<path fill-rule="evenodd" clip-rule="evenodd" d="M8.83203 16.4453C9.13839 16.9048 9.01421 17.5257 8.55468 17.832L5.55468 19.832C5.09516 20.1384 4.47429 20.0142 4.16793 19.5547C3.86158 19.0952 3.98576 18.4743 4.44528 18.1679L7.44528 16.1679C7.90481 15.8616 8.52568 15.9858 8.83203 16.4453Z" fill="#5C5C5C"/>
<path fill-rule="evenodd" clip-rule="evenodd" d="M15 13C15 12.4477 15.4477 12 16 12H20C20.5523 12 21 12.4477 21 13C21 13.5523 20.5523 14 20 14H16C15.4477 14 15 13.5523 15 13Z" fill="#5C5C5C"/>
<path fill-rule="evenodd" clip-rule="evenodd" d="M3 13C3 12.4477 3.44772 12 4 12H8C8.55228 12 9 12.4477 9 13C9 13.5523 8.55228 14 8 14H4C3.44772 14 3 13.5523 3 13Z" fill="#5C5C5C"/>
<path fill-rule="evenodd" clip-rule="evenodd" d="M9.55276 3.10555C10.0467 2.85856 10.6474 3.05878 10.8944 3.55276L11.8944 5.55276C12.1414 6.04674 11.9412 6.64741 11.4472 6.8944C10.9532 7.14139 10.3525 6.94117 10.1055 6.44719L9.10555 4.44719C8.85856 3.95321 9.05878 3.35254 9.55276 3.10555Z" fill="#5C5C5C"/>
<path fill-rule="evenodd" clip-rule="evenodd" d="M14.4472 3.10555C14.9412 3.35254 15.1414 3.95321 14.8944 4.44719L13.8944 6.44719C13.6474 6.94117 13.0467 7.14139 12.5528 6.8944C12.0588 6.64741 11.8586 6.04674 12.1055 5.55276L13.1055 3.55276C13.3525 3.05878 13.9532 2.85856 14.4472 3.10555Z" fill="#5C5C5C"/>
</svg>
