<svg width="24" height="24" viewBox="0 0 24 24" fill="none" xmlns="http://www.w3.org/2000/svg">
<path fill-rule="evenodd" clip-rule="evenodd" d="M12 3C7.02944 3 3 7.02944 3 12C3 16.9706 7.02944 21 12 21C16.9706 21 21 16.9706 21 12C21 7.02944 16.9706 3 12 3ZM1 12C1 5.92487 5.92487 1 12 1C18.0751 1 23 5.92487 23 12C23 18.0751 18.0751 23 12 23C5.92487 23 1 18.0751 1 12Z" fill="#5C5C5C"/>
<path fill-rule="evenodd" clip-rule="evenodd" d="M16.9471 7.05287C17.215 7.3207 17.3085 7.71687 17.1887 8.0762L15.0687 14.4362C14.9692 14.7348 14.7349 14.9691 14.4363 15.0687L8.07626 17.1887C7.71693 17.3084 7.32076 17.2149 7.05293 16.9471C6.7851 16.6792 6.69158 16.2831 6.81135 15.9237L8.93135 9.56375C9.03089 9.26514 9.2652 9.03083 9.56381 8.93129L15.9238 6.81129C16.2831 6.69151 16.6793 6.78504 16.9471 7.05287ZM10.6706 10.6705L9.34118 14.6588L13.3295 13.3294L14.6589 9.34111L10.6706 10.6705Z" fill="#5C5C5C"/>
</svg>
