<svg width="24" height="24" viewBox="0 0 24 24" fill="none" xmlns="http://www.w3.org/2000/svg">
<path fill-rule="evenodd" clip-rule="evenodd" d="M12.9499 2.31359C12.7949 2.82922 12.7815 3.3772 12.9113 3.9C13.0427 4.42933 13.3159 4.91281 13.7016 5.29847C14.0872 5.68412 14.5707 5.95734 15.1 6.08876C15.6293 6.22017 16.1845 6.2048 16.7057 6.0443C17.0598 5.93528 17.4451 6.03094 17.7071 6.29292C17.9691 6.55489 18.0648 6.94023 17.9557 7.2943C17.7952 7.81555 17.7799 8.37068 17.9113 8.9C18.0427 9.42933 18.3159 9.91282 18.7016 10.2985C19.0872 10.6841 19.5707 10.9573 20.1 11.0888C20.6293 11.2202 21.1845 11.2048 21.7057 11.0443C22.0091 10.9509 22.3387 11.007 22.594 11.1956C22.8493 11.3841 23 11.6826 23 12C23 14.1756 22.3549 16.3024 21.1462 18.1113C19.9375 19.9202 18.2195 21.3301 16.2095 22.1627C14.1995 22.9953 11.9878 23.2131 9.85401 22.7887C7.72022 22.3642 5.76021 21.3166 4.22183 19.7782C2.68345 18.2398 1.6358 16.2798 1.21137 14.146C0.786929 12.0122 1.00477 9.80049 1.83733 7.7905C2.66989 5.78052 4.07979 4.06255 5.88873 2.85386C7.6909 1.64969 9.80849 1.00486 11.9756 1.00005C12.0328 0.998656 12.0908 1.00221 12.1488 1.01102C12.2657 1.02846 12.376 1.06614 12.4761 1.12038C12.6077 1.19146 12.7189 1.28983 12.8045 1.40595C12.8903 1.52194 12.9516 1.65714 12.9808 1.80391C13.0032 1.91547 13.0067 2.03199 12.989 2.14888C12.9806 2.20547 12.9674 2.26051 12.9499 2.31359ZM10.8239 3.07719C9.46088 3.25685 8.15164 3.74721 6.99987 4.5168C5.51983 5.50573 4.36628 6.91134 3.68509 8.55587C3.0039 10.2004 2.82567 12.01 3.17294 13.7558C3.5202 15.5017 4.37737 17.1053 5.63604 18.364C6.89472 19.6227 8.49836 20.4798 10.2442 20.8271C11.99 21.1744 13.7996 20.9961 15.4442 20.3149C17.0887 19.6337 18.4943 18.4802 19.4832 17.0002C20.2528 15.8484 20.7432 14.5391 20.9228 13.1761C20.4854 13.1849 20.0467 13.1362 19.6181 13.0298C18.7359 12.8108 17.9301 12.3554 17.2873 11.7127C16.6446 11.0699 16.1892 10.2641 15.9702 9.38191C15.8719 8.98599 15.8229 8.5814 15.8229 8.17715C15.4186 8.17715 15.014 8.12813 14.6181 8.02983C13.7359 7.81081 12.9301 7.35543 12.2873 6.71268C11.6446 6.06993 11.1892 5.26412 10.9702 4.38191C10.8638 3.95335 10.8151 3.51465 10.8239 3.07719Z" fill="#5C5C5C"/>
<path fill-rule="evenodd" clip-rule="evenodd" d="M8.5 7.5C9.05228 7.5 9.5 7.94772 9.5 8.5V8.51C9.5 9.06228 9.05228 9.51 8.5 9.51C7.94772 9.51 7.5 9.06228 7.5 8.51V8.5C7.5 7.94772 7.94772 7.5 8.5 7.5Z" fill="#5C5C5C"/>
<path fill-rule="evenodd" clip-rule="evenodd" d="M16 14.5C16.5523 14.5 17 14.9477 17 15.5V15.51C17 16.0623 16.5523 16.51 16 16.51C15.4477 16.51 15 16.0623 15 15.51V15.5C15 14.9477 15.4477 14.5 16 14.5Z" fill="#5C5C5C"/>
<path fill-rule="evenodd" clip-rule="evenodd" d="M12 11C12.5523 11 13 11.4477 13 12V12.01C13 12.5623 12.5523 13.01 12 13.01C11.4477 13.01 11 12.5623 11 12.01V12C11 11.4477 11.4477 11 12 11Z" fill="#5C5C5C"/>
<path fill-rule="evenodd" clip-rule="evenodd" d="M11 16C11.5523 16 12 16.4477 12 17V17.01C12 17.5623 11.5523 18.01 11 18.01C10.4477 18.01 10 17.5623 10 17.01V17C10 16.4477 10.4477 16 11 16Z" fill="#5C5C5C"/>
<path fill-rule="evenodd" clip-rule="evenodd" d="M7 13C7.55228 13 8 13.4477 8 14V14.01C8 14.5623 7.55228 15.01 7 15.01C6.44772 15.01 6 14.5623 6 14.01V14C6 13.4477 6.44772 13 7 13Z" fill="#5C5C5C"/>
</svg>
