<svg width="24" height="24" viewBox="0 0 24 24" fill="none" xmlns="http://www.w3.org/2000/svg">
<path fill-rule="evenodd" clip-rule="evenodd" d="M5.16795 2.4453C5.35342 2.1671 5.66565 2 6 2H18C18.3344 2 18.6466 2.1671 18.8321 2.4453L22.8321 8.4453C23.0697 8.8018 23.0539 9.2701 22.7926 9.60971L12.7926 22.6097C12.6033 22.8558 12.3105 23 12 23C11.6895 23 11.3967 22.8558 11.2074 22.6097L1.20738 9.60971C0.946139 9.2701 0.930283 8.8018 1.16795 8.4453L5.16795 2.4453ZM6.53519 4L3.22961 8.95837L12 20.3599L20.7704 8.95837L17.4648 4H6.53519Z" fill="#5C5C5C"/>
<path fill-rule="evenodd" clip-rule="evenodd" d="M12.5528 2.10555C13.0468 1.85856 13.6475 2.05878 13.8944 2.55276L16.8944 8.55276C17.0095 8.78278 17.0314 9.04826 16.9558 9.29406L12.9558 22.2941C12.7934 22.8219 12.2338 23.1182 11.7059 22.9558C11.1781 22.7933 10.8818 22.2338 11.0442 21.7059L14.9264 9.08883L12.1056 3.44719C11.8586 2.95321 12.0588 2.35254 12.5528 2.10555Z" fill="#5C5C5C"/>
<path fill-rule="evenodd" clip-rule="evenodd" d="M11.4472 2.10555C11.9412 2.35254 12.1414 2.95321 11.8944 3.44719L9.07361 9.08883L12.9558 21.7059C13.1182 22.2338 12.8219 22.7933 12.2941 22.9558C11.7662 23.1182 11.2066 22.8219 11.0442 22.2941L7.04422 9.29406C6.96859 9.04826 6.99056 8.78278 7.10557 8.55276L10.1056 2.55276C10.3526 2.05878 10.9532 1.85856 11.4472 2.10555Z" fill="#5C5C5C"/>
<path fill-rule="evenodd" clip-rule="evenodd" d="M1 9C1 8.44772 1.44772 8 2 8H22C22.5523 8 23 8.44772 23 9C23 9.55228 22.5523 10 22 10H2C1.44772 10 1 9.55228 1 9Z" fill="#5C5C5C"/>
</svg>
