<svg width="24" height="24" viewBox="0 0 24 24" fill="none" xmlns="http://www.w3.org/2000/svg">
<path d="M3.614 21C3.284 21 2.944 20.91 2.654 20.75C2.354 20.59 2.104 20.35 1.924 20.06C1.744 19.77 1.644 19.43 1.624 19.09C1.604 18.75 1.684 18.41 1.834 18.1L3.004 15.76V7C3.004 6.2 3.314 5.45 3.884 4.88C4.454 4.31 5.204 4 6.004 4H18.004C18.804 4 19.564 4.31 20.124 4.88C20.694 5.44 21.004 6.2 21.004 7V15.76L22.174 18.1C22.324 18.4 22.404 18.74 22.384 19.08C22.364 19.43 22.264 19.76 22.084 20.05C21.904 20.34 21.644 20.59 21.344 20.75C21.054 20.92 20.714 21 20.374 21H3.624C3.614 21 3.614 21 3.614 21ZM4.614 17L3.614 19H20.384L19.384 17H4.614ZM5.004 15H19.004V7C19.004 6.73 18.904 6.48 18.714 6.29C18.524 6.1 18.264 6 18.004 6H6.004C5.734 6 5.484 6.11 5.294 6.29C5.104 6.48 5.004 6.74 5.004 7V15Z" fill="#5C5C5C"/>
</svg>
