<svg width="24" height="24" viewBox="0 0 24 24" fill="none" xmlns="http://www.w3.org/2000/svg">
<path fill-rule="evenodd" clip-rule="evenodd" d="M12 13C12.5523 13 13 13.4477 13 14V21C13 21.5523 12.5523 22 12 22C11.4477 22 11 21.5523 11 21V14C11 13.4477 11.4477 13 12 13Z" fill="#5C5C5C"/>
<path fill-rule="evenodd" clip-rule="evenodd" d="M9 2C9.55228 2 10 2.44772 10 3V8C10 8.15525 9.96385 8.30836 9.89443 8.44721L8 12.2361V13H16V12.2361L14.1056 8.44721C14.0361 8.30836 14 8.15525 14 8V3C14 2.44772 14.4477 2 15 2C15.5523 2 16 2.44772 16 3V7.76393L17.8944 11.5528C17.9639 11.6916 18 11.8448 18 12V14C18 14.5523 17.5523 15 17 15H7C6.44772 15 6 14.5523 6 14V12C6 11.8448 6.03615 11.6916 6.10557 11.5528L8 7.76393V3C8 2.44772 8.44772 2 9 2Z" fill="#5C5C5C"/>
<path fill-rule="evenodd" clip-rule="evenodd" d="M6 3C6 2.44772 6.44772 2 7 2H17C17.5523 2 18 2.44772 18 3C18 3.55228 17.5523 4 17 4H7C6.44772 4 6 3.55228 6 3Z" fill="#5C5C5C"/>
</svg>
