<svg width="24" height="24" viewBox="0 0 24 24" fill="none" xmlns="http://www.w3.org/2000/svg">
<path fill-rule="evenodd" clip-rule="evenodd" d="M15.2929 1.29289C15.6834 0.902369 16.3166 0.902369 16.7071 1.29289L22.7071 7.29289C23.0976 7.68342 23.0976 8.31658 22.7071 8.70711L8.70711 22.7071C8.31658 23.0976 7.68342 23.0976 7.29289 22.7071L1.29289 16.7071C0.902369 16.3166 0.902369 15.6834 1.29289 15.2929L15.2929 1.29289ZM3.41421 16L8 20.5858L20.5858 8L16 3.41421L3.41421 16Z" fill="#5C5C5C"/>
<path fill-rule="evenodd" clip-rule="evenodd" d="M6.79289 9.79289C7.18342 9.40237 7.81658 9.40237 8.20711 9.79289L10.2071 11.7929C10.5976 12.1834 10.5976 12.8166 10.2071 13.2071C9.81658 13.5976 9.18342 13.5976 8.79289 13.2071L6.79289 11.2071C6.40237 10.8166 6.40237 10.1834 6.79289 9.79289Z" fill="#5C5C5C"/>
<path fill-rule="evenodd" clip-rule="evenodd" d="M9.79289 6.79289C10.1834 6.40237 10.8166 6.40237 11.2071 6.79289L13.2071 8.79289C13.5976 9.18342 13.5976 9.81658 13.2071 10.2071C12.8166 10.5976 12.1834 10.5976 11.7929 10.2071L9.79289 8.20711C9.40237 7.81658 9.40237 7.18342 9.79289 6.79289Z" fill="#5C5C5C"/>
<path fill-rule="evenodd" clip-rule="evenodd" d="M12.7929 3.79289C13.1834 3.40237 13.8166 3.40237 14.2071 3.79289L16.2071 5.79289C16.5976 6.18342 16.5976 6.81658 16.2071 7.20711C15.8166 7.59763 15.1834 7.59763 14.7929 7.20711L12.7929 5.20711C12.4024 4.81658 12.4024 4.18342 12.7929 3.79289Z" fill="#5C5C5C"/>
<path fill-rule="evenodd" clip-rule="evenodd" d="M3.79289 12.7929C4.18342 12.4024 4.81658 12.4024 5.20711 12.7929L7.20711 14.7929C7.59763 15.1834 7.59763 15.8166 7.20711 16.2071C6.81658 16.5976 6.18342 16.5976 5.79289 16.2071L3.79289 14.2071C3.40237 13.8166 3.40237 13.1834 3.79289 12.7929Z" fill="#5C5C5C"/>
</svg>
