<svg width="24" height="24" viewBox="0 0 24 24" fill="none" xmlns="http://www.w3.org/2000/svg">
<path fill-rule="evenodd" clip-rule="evenodd" d="M13.8787 3.87868C14.4413 3.31607 15.2044 3 16 3C16.7956 3 17.5587 3.31607 18.1213 3.87868C18.6839 4.44129 19 5.20435 19 6V11C19 11.5523 18.5523 12 18 12C17.4477 12 17 11.5523 17 11V6C17 5.73478 16.8946 5.48043 16.7071 5.29289C16.5196 5.10536 16.2652 5 16 5C15.7348 5 15.4804 5.10536 15.2929 5.29289C15.1054 5.48043 15 5.73478 15 6H13C13 5.20435 13.3161 4.44129 13.8787 3.87868Z" fill="#5C5C5C"/>
<path fill-rule="evenodd" clip-rule="evenodd" d="M9.87868 1.87868C10.4413 1.31607 11.2044 1 12 1C12.7956 1 13.5587 1.31607 14.1213 1.87868C14.6839 2.44129 15 3.20435 15 4V10C15 10.5523 14.5523 11 14 11C13.4477 11 13 10.5523 13 10V4C13 3.73478 12.8946 3.48043 12.7071 3.29289C12.5196 3.10536 12.2652 3 12 3C11.7348 3 11.4804 3.10536 11.2929 3.29289C11.1054 3.48043 11 3.73478 11 4V6C11 6.55228 10.5523 7 10 7C9.44772 7 9 6.55228 9 6V4C9 3.20435 9.31607 2.44129 9.87868 1.87868Z" fill="#5C5C5C"/>
<path fill-rule="evenodd" clip-rule="evenodd" d="M5.87868 3.87868C6.44129 3.31607 7.20435 3 8 3C8.79565 3 9.55871 3.31607 10.1213 3.87868C10.6839 4.44129 11 5.20435 11 6V10.5C11 11.0523 10.5523 11.5 10 11.5C9.44772 11.5 9 11.0523 9 10.5V6C9 5.73478 8.89464 5.48043 8.70711 5.29289C8.51957 5.10536 8.26522 5 8 5C7.73478 5 7.48043 5.10536 7.29289 5.29289C7.10536 5.48043 7 5.73478 7 6V14C7 14.5523 6.55228 15 6 15C5.44772 15 5 14.5523 5 14V6C5 5.20435 5.31607 4.44129 5.87868 3.87868Z" fill="#5C5C5C"/>
<path fill-rule="evenodd" clip-rule="evenodd" d="M20 7C19.7348 7 19.4804 7.10536 19.2929 7.29289C19.1053 7.48043 19 7.73478 19 8C19 8.55228 18.5523 9 18 9C17.4477 9 17 8.55228 17 8C17 7.20435 17.3161 6.44129 17.8787 5.87868C18.4413 5.31607 19.2043 5 20 5C20.7956 5 21.5587 5.31607 22.1213 5.87868C22.6839 6.44129 23 7.20435 23 8V14C23 16.3869 22.0518 18.6761 20.3639 20.364C18.6761 22.0518 16.3869 23 14 23H12C8.93117 23 6.97919 22.0322 5.30526 20.3695L5.30287 20.3671L1.70287 16.7671C1.69086 16.7551 1.67915 16.7428 1.66777 16.7302C1.15167 16.1586 0.875148 15.4104 0.895453 14.6406C0.915759 13.8707 1.23134 13.1382 1.77685 12.5946C2.32236 12.051 3.05602 11.738 3.82592 11.7205C4.59583 11.7029 5.34301 11.982 5.91277 12.5002C5.92446 12.5108 5.93591 12.5217 5.94709 12.5329L7.70709 14.2929C8.09761 14.6834 8.09761 15.3166 7.70709 15.7071C7.31656 16.0976 6.6834 16.0976 6.29287 15.7071L4.55253 13.9668C4.36455 13.8024 4.12166 13.7142 3.87158 13.7199C3.61495 13.7258 3.37039 13.8301 3.18856 14.0113C3.00672 14.1925 2.90153 14.4367 2.89476 14.6933C2.88818 14.9429 2.97518 15.1856 3.13821 15.374L6.7147 18.9505C6.7151 18.9509 6.71549 18.9513 6.71588 18.9517C8.02164 20.2483 9.46955 21 12 21H14C15.8565 21 17.637 20.2625 18.9497 18.9497C20.2625 17.637 21 15.8565 21 14V8C21 7.73478 20.8946 7.48043 20.7071 7.29289C20.5196 7.10536 20.2652 7 20 7Z" fill="#5C5C5C"/>
</svg>
