<svg width="24" height="24" viewBox="0 0 24 24" fill="none" xmlns="http://www.w3.org/2000/svg">
<path fill-rule="evenodd" clip-rule="evenodd" d="M22 13C22.5523 13 23 13.4477 23 14C23 16.3869 22.0518 18.6761 20.364 20.364C18.6761 22.0518 16.3869 23 14 23C13.4477 23 13 22.5523 13 22C13 21.4477 13.4477 21 14 21C15.8565 21 17.637 20.2625 18.9497 18.9497C20.2625 17.637 21 15.8565 21 14C21 13.4477 21.4477 13 22 13Z" fill="#5C5C5C"/>
<path fill-rule="evenodd" clip-rule="evenodd" d="M13.8787 7.87868C14.4413 7.31607 15.2043 7 16 7C16.7957 7 17.5587 7.31607 18.1213 7.87868C18.6839 8.44129 19 9.20435 19 10V11C19 11.5523 18.5523 12 18 12C17.4477 12 17 11.5523 17 11V10C17 9.73478 16.8946 9.48043 16.7071 9.29289C16.5196 9.10536 16.2652 9 16 9C15.7348 9 15.4804 9.10536 15.2929 9.29289C15.1054 9.48043 15 9.73478 15 10C15 10.5523 14.5523 11 14 11C13.4477 11 13 10.5523 13 10C13 9.20435 13.3161 8.44129 13.8787 7.87868Z" fill="#5C5C5C"/>
<path fill-rule="evenodd" clip-rule="evenodd" d="M9.87868 6.87868C10.4413 6.31607 11.2044 6 12 6C12.7956 6 13.5587 6.31607 14.1213 6.87868C14.6839 7.44129 15 8.20435 15 9V10C15 10.5523 14.5523 11 14 11C13.4477 11 13 10.5523 13 10V9C13 8.73478 12.8946 8.48043 12.7071 8.29289C12.5196 8.10536 12.2652 8 12 8C11.7348 8 11.4804 8.10536 11.2929 8.29289C11.1054 8.48043 11 8.73478 11 9V10C11 10.5523 10.5523 11 10 11C9.44772 11 9 10.5523 9 10V9C9 8.20435 9.31607 7.44129 9.87868 6.87868Z" fill="#5C5C5C"/>
<path fill-rule="evenodd" clip-rule="evenodd" d="M5.87868 1.87868C6.44129 1.31607 7.20435 1 8 1C8.79565 1 9.55871 1.31607 10.1213 1.87868C10.6839 2.44129 11 3.20435 11 4V9.5C11 10.0523 10.5523 10.5 10 10.5C9.44772 10.5 9 10.0523 9 9.5V4C9 3.73478 8.89464 3.48043 8.70711 3.29289C8.51957 3.10536 8.26522 3 8 3C7.73478 3 7.48043 3.10536 7.29289 3.29289C7.10536 3.48043 7 3.73478 7 4V14C7 14.5523 6.55228 15 6 15C5.44772 15 5 14.5523 5 14V4C5 3.20435 5.31607 2.44129 5.87868 1.87868Z" fill="#5C5C5C"/>
<path fill-rule="evenodd" clip-rule="evenodd" d="M20 10C19.7348 10 19.4804 10.1054 19.2929 10.2929C19.1053 10.4804 19 10.7348 19 11C19 11.5523 18.5523 12 18 12C17.4477 12 17 11.5523 17 11C17 10.2043 17.3161 9.44129 17.8787 8.87868C18.4413 8.31607 19.2043 8 20 8C20.7956 8 21.5587 8.31607 22.1213 8.87868C22.6839 9.44129 23 10.2043 23 11V14C23 16.3869 22.0518 18.6761 20.3639 20.364C18.6761 22.0518 16.3869 23 14 23H12C8.93117 23 6.97919 22.0322 5.30526 20.3695L5.30287 20.3671L1.70287 16.7671C1.69086 16.7551 1.67915 16.7428 1.66777 16.7302C1.15167 16.1586 0.875148 15.4104 0.895453 14.6406C0.915759 13.8707 1.23134 13.1382 1.77685 12.5946C2.32236 12.051 3.05602 11.738 3.82592 11.7205C4.59583 11.7029 5.34301 11.982 5.91277 12.5002C5.92446 12.5108 5.93591 12.5217 5.94709 12.5329L7.70709 14.2929C8.09761 14.6834 8.09761 15.3166 7.70709 15.7071C7.31656 16.0976 6.6834 16.0976 6.29287 15.7071L4.55253 13.9668C4.36455 13.8024 4.12166 13.7142 3.87158 13.7199C3.61495 13.7258 3.37039 13.8301 3.18856 14.0113C3.00672 14.1925 2.90153 14.4367 2.89476 14.6933C2.88818 14.9429 2.97518 15.1856 3.13821 15.374L6.7147 18.9505C6.7151 18.9509 6.71549 18.9513 6.71588 18.9517C8.02164 20.2483 9.46955 21 12 21H14C15.8565 21 17.637 20.2625 18.9497 18.9497C20.2625 17.637 21 15.8565 21 14V11C21 10.7348 20.8946 10.4804 20.7071 10.2929C20.5196 10.1054 20.2652 10 20 10Z" fill="#5C5C5C"/>
</svg>
