<svg width="24" height="24" viewBox="0 0 24 24" fill="none" xmlns="http://www.w3.org/2000/svg">
<path fill-rule="evenodd" clip-rule="evenodd" d="M4.95063 2.48103C5.72857 2.15801 6.56261 1.99173 7.40494 1.99173C8.24727 1.99173 9.08132 2.15801 9.85925 2.48103C10.6372 2.80405 11.3437 3.27746 11.9383 3.87411L11.9416 3.87745L11.9999 3.93656L12.0583 3.87746L12.0616 3.87411C12.6562 3.27746 13.3627 2.80405 14.1406 2.48103C14.9186 2.15801 15.7526 1.99173 16.5949 1.99173C17.4373 1.99173 18.2713 2.15801 19.0492 2.48103C19.8269 2.80394 20.5332 3.27713 21.1277 3.8735C23.6727 6.41919 23.7293 10.6283 20.7136 13.7005L20.7071 13.7071L12.707 21.7071C12.5195 21.8946 12.2652 22 11.9999 22C11.7347 22 11.4804 21.8946 11.2928 21.7071L3.28627 13.7005C0.270576 10.6284 0.327197 6.41918 2.87223 3.87349C3.46668 3.27713 4.17297 2.80394 4.95063 2.48103ZM7.40494 3.99173C6.82584 3.99173 6.25243 4.10605 5.71761 4.32812C5.18278 4.5502 4.69705 4.87567 4.28827 5.28587L4.28705 5.28709C2.59343 6.98071 2.3897 9.92925 4.71046 12.2963L11.9999 19.5858L19.2894 12.2963C21.6102 9.92926 21.4065 6.98071 19.7128 5.28709L19.7116 5.28587C19.3028 4.87567 18.8171 4.5502 18.2823 4.32812C17.7474 4.10605 17.174 3.99173 16.5949 3.99173C16.0158 3.99173 15.4424 4.10605 14.9076 4.32812C14.3735 4.54991 13.8883 4.87481 13.4799 5.28425C13.4794 5.28479 13.4788 5.28533 13.4783 5.28587L12.7116 6.06252C12.5237 6.25285 12.2674 6.35999 11.9999 6.35999C11.7325 6.35999 11.4762 6.25285 11.2883 6.06252L10.5216 5.28587C10.5211 5.28533 10.5205 5.28479 10.52 5.28425C10.1116 4.87481 9.6264 4.54991 9.09228 4.32812C8.55745 4.10605 7.98404 3.99173 7.40494 3.99173Z" fill="#5C5C5C"/>
</svg>
