<svg width="24" height="24" viewBox="0 0 24 24" fill="none" xmlns="http://www.w3.org/2000/svg">
<g clip-path="url(#clip0_34_3196)">
<path fill-rule="evenodd" clip-rule="evenodd" d="M4.9507 2.48103C5.72863 2.15801 6.56267 1.99173 7.405 1.99173C8.24733 1.99173 9.08138 2.15801 9.85931 2.48103C10.6372 2.80405 11.3438 3.27746 11.9383 3.87411L11.9417 3.87745L12 3.93656L12.0583 3.87746L12.0617 3.87411C12.6563 3.27746 13.3628 2.80405 14.1407 2.48103C14.9186 2.15801 15.7527 1.99173 16.595 1.99173C17.4373 1.99173 18.2714 2.15801 19.0493 2.48103C19.827 2.80394 20.5333 3.27713 21.1277 3.8735C23.6727 6.41919 23.7293 10.6283 20.7136 13.7005L20.7071 13.7071L12.7071 21.7071C12.5196 21.8946 12.2652 22 12 22C11.7348 22 11.4804 21.8946 11.2929 21.7071L3.28634 13.7005C0.270638 10.6284 0.327258 6.41918 2.87229 3.87349C3.46674 3.27713 4.17303 2.80394 4.9507 2.48103Z" fill="#E3E3E3" stroke="#333333" stroke-width="2" stroke-linecap="round" stroke-linejoin="round"/>
</g>
<defs>
<clipPath id="clip0_34_3196">
<rect width="24" height="24" fill="white"/>
</clipPath>
</defs>
</svg>
