<svg width="16" height="16" viewBox="0 0 16 16" fill="none" xmlns="http://www.w3.org/2000/svg">
<path fill-rule="evenodd" clip-rule="evenodd" d="M7.99986 0.666748C8.2536 0.666748 8.48535 0.810796 8.59766 1.03833L10.5027 4.89773L14.7629 5.52042C15.014 5.55712 15.2224 5.73312 15.3007 5.97446C15.3789 6.2158 15.3134 6.48063 15.1317 6.65765L12.0495 9.65966L12.7769 13.9007C12.8198 14.1508 12.717 14.4036 12.5117 14.5528C12.3064 14.7019 12.0342 14.7216 11.8096 14.6035L7.99986 12.6L4.19016 14.6035C3.96555 14.7216 3.69335 14.7019 3.48803 14.5528C3.28272 14.4036 3.17989 14.1508 3.22278 13.9007L3.95018 9.65966L0.868035 6.65765C0.686289 6.48063 0.620774 6.2158 0.699026 5.97446C0.777278 5.73312 0.985731 5.55712 1.23677 5.52042L5.49702 4.89773L7.40205 1.03833C7.51437 0.810796 7.74611 0.666748 7.99986 0.666748Z" fill="#1FB1FF"/>
</svg>
