<svg width="24" height="24" viewBox="0 0 24 24" fill="none" xmlns="http://www.w3.org/2000/svg">
<path fill-rule="evenodd" clip-rule="evenodd" d="M3.87868 1.87868C4.44129 1.31607 5.20435 1 6 1H14.5C14.7652 1 15.0196 1.10536 15.2071 1.29289L20.7071 6.79289C20.8946 6.98043 21 7.23478 21 7.5V20C21 20.7957 20.6839 21.5587 20.1213 22.1213C19.5587 22.6839 18.7957 23 18 23H4C3.44772 23 3 22.5523 3 22C3 21.4477 3.44772 21 4 21H18C18.2652 21 18.5196 20.8946 18.7071 20.7071C18.8946 20.5196 19 20.2652 19 20V7.91421L14.0858 3H6C5.73478 3 5.48043 3.10536 5.29289 3.29289C5.10536 3.48043 5 3.73478 5 4V7C5 7.55228 4.55228 8 4 8C3.44772 8 3 7.55228 3 7V4C3 3.20435 3.31607 2.44129 3.87868 1.87868Z" fill="#5C5C5C"/>
<path fill-rule="evenodd" clip-rule="evenodd" d="M14 1C14.5523 1 15 1.44772 15 2V7H20C20.5523 7 21 7.44772 21 8C21 8.55228 20.5523 9 20 9H14C13.4477 9 13 8.55228 13 8V2C13 1.44772 13.4477 1 14 1Z" fill="#5C5C5C"/>
<path fill-rule="evenodd" clip-rule="evenodd" d="M2.17157 11.1716C2.92172 10.4214 3.93913 10 5 10C5.52529 10 6.04543 10.1035 6.53073 10.3045C7.01604 10.5055 7.45699 10.8001 7.82843 11.1716C8.19986 11.543 8.4945 11.984 8.69552 12.4693C8.89654 12.9546 9 13.4747 9 14C9 14.5253 8.89654 15.0454 8.69552 15.5307C8.4945 16.016 8.19986 16.457 7.82843 16.8284C7.45699 17.1999 7.01604 17.4945 6.53073 17.6955C6.04543 17.8965 5.52529 18 5 18C3.93913 18 2.92172 17.5786 2.17157 16.8284C1.42143 16.0783 1 15.0609 1 14C1 12.9391 1.42143 11.9217 2.17157 11.1716ZM5 12C4.46957 12 3.96086 12.2107 3.58579 12.5858C3.21071 12.9609 3 13.4696 3 14C3 14.5304 3.21071 15.0391 3.58579 15.4142C3.96086 15.7893 4.46957 16 5 16C5.26264 16 5.52272 15.9483 5.76537 15.8478C6.00802 15.7473 6.2285 15.5999 6.41421 15.4142C6.59993 15.2285 6.74725 15.008 6.84776 14.7654C6.94827 14.5227 7 14.2626 7 14C7 13.7374 6.94827 13.4773 6.84776 13.2346C6.74725 12.992 6.59993 12.7715 6.41421 12.5858C6.2285 12.4001 6.00802 12.2528 5.76537 12.1522C5.52272 12.0517 5.26264 12 5 12Z" fill="#5C5C5C"/>
<path fill-rule="evenodd" clip-rule="evenodd" d="M6.79289 15.7929C7.18342 15.4024 7.81658 15.4024 8.20711 15.7929L9.70711 17.2929C10.0976 17.6834 10.0976 18.3166 9.70711 18.7071C9.31658 19.0976 8.68342 19.0976 8.29289 18.7071L6.79289 17.2071C6.40237 16.8166 6.40237 16.1834 6.79289 15.7929Z" fill="#5C5C5C"/>
</svg>
