<svg width="25" height="25" viewBox="0 0 25 25" fill="none" xmlns="http://www.w3.org/2000/svg">
<path fill-rule="evenodd" clip-rule="evenodd" d="M1.29006 0.300007C1.68006 -0.0899927 2.31006 -0.0899927 2.70006 0.300007L24.7001 22.3C25.0901 22.69 25.0901 23.32 24.7001 23.71C24.3101 24.1 23.6801 24.1 23.2901 23.71L1.29006 1.71001C0.900059 1.32001 0.900059 0.690007 1.29006 0.300007Z" fill="#5C5C5C"/>
<path d="M13 16C12.48 16 11.96 15.9 11.47 15.69C10.74 15.39 10.12 14.88 9.68 14.22C9.23 13.57 9 12.8 9 12.01V8.99998C9 8.59998 9.24 8.22998 9.62 8.07998C10 7.92998 10.42 8.00998 10.71 8.29998L15.83 13.42C16.22 13.81 16.22 14.44 15.83 14.83C15.27 15.39 14.56 15.77 13.78 15.92C13.52 15.98 13.26 16 13 16ZM11 11.42V12C11 12.4 11.12 12.78 11.34 13.11C11.56 13.44 11.87 13.69 12.24 13.85C12.6 14 13 14.04 13.39 13.96C13.43 13.95 13.47 13.94 13.52 13.93L11 11.42ZM16 10.34C15.45 10.34 15 9.88998 15 9.33998V3.99998C15 3.49998 14.82 3.02998 14.48 2.65998C14.15 2.28998 13.69 2.05998 13.2 2.00998C12.71 1.95998 12.21 2.08998 11.81 2.38998C11.41 2.67998 11.14 3.11998 11.04 3.59998C10.93 4.13998 10.4 4.48998 9.86 4.37998C9.32 4.26998 8.97 3.74998 9.08 3.20998C9.28 2.23998 9.83 1.37998 10.63 0.789978C11.43 0.199978 12.42 -0.0700221 13.41 0.0299779C14.4 0.129978 15.31 0.589978 15.98 1.32998C16.63 2.05998 17 3.00998 17 4.00998V9.34998C17 9.89998 16.55 10.34 16 10.34Z" fill="#5C5C5C"/>
<path fill-rule="evenodd" clip-rule="evenodd" d="M6.00004 9C6.55004 9 7.00004 9.45 7.00004 10V12.01C6.99004 13.21 7.34004 14.38 8.00004 15.37C8.66004 16.36 9.61004 17.14 10.71 17.6C11.82 18.06 13.03 18.17 14.2 17.93C15.37 17.69 16.44 17.11 17.28 16.25C17.67 15.86 18.3 15.85 18.69 16.24C19.08 16.63 19.09 17.26 18.7 17.65C17.58 18.79 16.15 19.57 14.59 19.89C13.03 20.21 11.41 20.06 9.93004 19.45C8.46004 18.84 7.20004 17.81 6.32004 16.48C5.45004 15.15 4.99004 13.59 5.00004 12V10C5.00004 9.45 5.45004 9 6.00004 9ZM20 9C20.55 9 21 9.45 21 10V12C21 12.47 20.96 12.94 20.87 13.41C20.77 13.95 20.25 14.32 19.71 14.22C19.17 14.12 18.8 13.6 18.9 13.06C18.97 12.71 19 12.36 19 12V10C19 9.45 19.45 9 20 9Z" fill="#5C5C5C"/>
<path fill-rule="evenodd" clip-rule="evenodd" d="M13 18C13.55 18 14 18.45 14 19V23C14 23.55 13.55 24 13 24C12.45 24 12 23.55 12 23V19C12 18.45 12.45 18 13 18Z" fill="#5C5C5C"/>
<path fill-rule="evenodd" clip-rule="evenodd" d="M8 23C8 22.45 8.45 22 9 22H17C17.55 22 18 22.45 18 23C18 23.55 17.55 24 17 24H9C8.45 24 8 23.56 8 23Z" fill="#5C5C5C"/>
</svg>
