<svg width="24" height="24" viewBox="0 0 24 24" fill="none" xmlns="http://www.w3.org/2000/svg">
<path d="M19 23H5C3.35 23 2 21.65 2 20V13C2 11.35 3.35 10 5 10H19C20.65 10 22 11.35 22 13V20C22 21.66 20.65 23 19 23ZM5 12C4.45 12 4 12.45 4 13V20C4 20.55 4.45 21 5 21H19C19.55 21 20 20.55 20 20V13C20 12.45 19.55 12 19 12H5Z" fill="#5C5C5C"/>
<path d="M7 12C6.45 12 6 11.55 6 11V6.99998C6 5.50998 6.55 4.07998 7.55 2.96998C8.55 1.85998 9.92 1.16998 11.4 1.01998C12.88 0.869978 14.36 1.27998 15.56 2.15998C16.76 3.03998 17.58 4.33998 17.88 5.79998C17.99 6.33998 17.64 6.86998 17.1 6.97998C16.56 7.08998 16.03 6.73998 15.92 6.19998C15.72 5.22998 15.17 4.36998 14.37 3.76998C13.57 3.17998 12.58 2.90998 11.6 3.00998C10.61 3.10998 9.7 3.56998 9.03 4.30998C8.36 5.04998 8 6.00998 8 6.99998V11C8 11.56 7.55 12 7 12Z" fill="#5C5C5C"/>
</svg>
