<svg width="24" height="24" viewBox="0 0 24 24" fill="none" xmlns="http://www.w3.org/2000/svg">
<path fill-rule="evenodd" clip-rule="evenodd" d="M1.29289 1.29289C1.68342 0.902369 2.31658 0.902369 2.70711 1.29289L22.7071 21.2929C23.0976 21.6834 23.0976 22.3166 22.7071 22.7071C22.3166 23.0976 21.6834 23.0976 21.2929 22.7071L1.29289 2.70711C0.902369 2.31658 0.902369 1.68342 1.29289 1.29289Z" fill="#5C5C5C"/>
<path fill-rule="evenodd" clip-rule="evenodd" d="M12 16.0707C10.953 16.0707 9.94772 16.4812 9.2 17.2141C8.80559 17.6007 8.17246 17.5944 7.78586 17.2C7.39926 16.8056 7.40559 16.1725 7.8 15.7859C8.92157 14.6865 10.4295 14.0707 12 14.0707C13.5705 14.0707 15.0784 14.6865 16.2 15.7859C16.5944 16.1725 16.6007 16.8056 16.2141 17.2C15.8275 17.5944 15.1944 17.6007 14.8 17.2141C14.0523 16.4812 13.047 16.0707 12 16.0707Z" fill="#5C5C5C"/>
<path fill-rule="evenodd" clip-rule="evenodd" d="M7.09081 5.77997C7.30622 6.28852 7.06858 6.87539 6.56004 7.0908C5.13491 7.69445 3.81974 8.53023 2.66804 9.56413C2.25706 9.93307 1.62481 9.899 1.25587 9.48802C0.886931 9.07705 0.921006 8.4448 1.33198 8.07586C2.64821 6.89425 4.15126 5.93908 5.77998 5.24919C6.28853 5.03379 6.87541 5.27142 7.09081 5.77997Z" fill="#5C5C5C"/>
<path fill-rule="evenodd" clip-rule="evenodd" d="M21.3336 9.50562C18.3466 6.836 14.4926 5.65996 10.7494 5.99601C10.1993 6.04539 9.71336 5.6395 9.66398 5.08943C9.6146 4.53936 10.0205 4.0534 10.5706 4.00402C14.8474 3.62007 19.2534 4.96403 22.6664 8.01441C23.0781 8.38244 23.1136 9.01461 22.7456 9.4264C22.3775 9.83819 21.7454 9.87366 21.3336 9.50562Z" fill="#5C5C5C"/>
<path fill-rule="evenodd" clip-rule="evenodd" d="M15.9764 10.7634C16.2451 10.2809 16.8541 10.1076 17.3366 10.3764C18.2328 10.8755 19.0548 11.4975 19.7786 12.2244C20.1683 12.6157 20.167 13.2489 19.7757 13.6386C19.3843 14.0283 18.7512 14.027 18.3615 13.6356C17.7692 13.0409 17.0967 12.532 16.3635 12.1236C15.881 11.8549 15.7077 11.2459 15.9764 10.7634Z" fill="#5C5C5C"/>
<path fill-rule="evenodd" clip-rule="evenodd" d="M11.2231 10.0569C11.3242 10.5998 10.9661 11.1219 10.4231 11.2231C8.63637 11.5559 6.99225 12.4219 5.70712 13.7071C5.31661 14.0976 4.68344 14.0976 4.29291 13.7071C3.90238 13.3166 3.90236 12.6834 4.29288 12.2929C5.86359 10.7221 7.87307 9.66368 10.0569 9.2569C10.5998 9.15576 11.122 9.51392 11.2231 10.0569Z" fill="#5C5C5C"/>
<path fill-rule="evenodd" clip-rule="evenodd" d="M11 20C11 19.4477 11.4477 19 12 19H12.01C12.5623 19 13.01 19.4477 13.01 20C13.01 20.5523 12.5623 21 12.01 21H12C11.4477 21 11 20.5523 11 20Z" fill="#5C5C5C"/>
</svg>
