<svg width="24" height="24" viewBox="0 0 24 24" fill="none" xmlns="http://www.w3.org/2000/svg">
<path fill-rule="evenodd" clip-rule="evenodd" d="M12 11.1414C9.64423 11.1414 7.38236 12.0651 5.7 13.7141C5.30559 14.1007 4.67246 14.0944 4.28586 13.7C3.89926 13.3056 3.90559 12.6724 4.3 12.2858C6.35622 10.2704 9.12072 9.14142 12 9.14142C14.8793 9.14142 17.6438 10.2704 19.7 12.2858C20.0944 12.6724 20.1007 13.3056 19.7141 13.7C19.3275 14.0944 18.6944 14.1007 18.3 13.7141C16.6176 12.0651 14.3558 11.1414 12 11.1414Z" fill="#5C5C5C"/>
<path fill-rule="evenodd" clip-rule="evenodd" d="M12 16.0707C10.953 16.0707 9.94772 16.4812 9.2 17.2141C8.80559 17.6007 8.17246 17.5944 7.78586 17.2C7.39926 16.8056 7.40559 16.1725 7.8 15.7859C8.92157 14.6865 10.4295 14.0707 12 14.0707C13.5705 14.0707 15.0784 14.6865 16.2 15.7859C16.5944 16.1725 16.6007 16.8056 16.2141 17.2C15.8275 17.5944 15.1944 17.6007 14.8 17.2141C14.0523 16.4812 13.047 16.0707 12 16.0707Z" fill="#5C5C5C"/>
<path fill-rule="evenodd" clip-rule="evenodd" d="M12 6.00034C8.55632 6.00034 5.23345 7.26956 2.66668 9.56535C2.25503 9.93354 1.62284 9.89831 1.25465 9.48666C0.886464 9.07501 0.921694 8.44283 1.33334 8.07464C4.2668 5.45088 8.06437 4.00034 12 4.00034C15.9356 4.00034 19.7332 5.45088 22.6667 8.07464C23.0783 8.44283 23.1136 9.07501 22.7454 9.48666C22.3772 9.89831 21.745 9.93354 21.3333 9.56535C18.7666 7.26956 15.4437 6.00034 12 6.00034Z" fill="#5C5C5C"/>
<path fill-rule="evenodd" clip-rule="evenodd" d="M11 20C11 19.4477 11.4477 19 12 19H12.01C12.5623 19 13.01 19.4477 13.01 20C13.01 20.5523 12.5623 21 12.01 21H12C11.4477 21 11 20.5523 11 20Z" fill="#5C5C5C"/>
</svg>
