<svg width="24" height="24" viewBox="0 0 24 24" fill="none" xmlns="http://www.w3.org/2000/svg">
<g clip-path="url(#clip0_34_3843)">
<path d="M21.4286 11.1428H2.57146C1.62469 11.1428 0.857178 11.9103 0.857178 12.8571V21.4285C0.857178 22.3753 1.62469 23.1428 2.57146 23.1428H21.4286C22.3754 23.1428 23.1429 22.3753 23.1429 21.4285V12.8571C23.1429 11.9103 22.3754 11.1428 21.4286 11.1428Z" stroke="#5C5C5C" stroke-width="2" stroke-linecap="round" stroke-linejoin="round"/>
<path d="M6 3.42853V6.8571" stroke="#5C5C5C" stroke-width="2" stroke-linecap="round" stroke-linejoin="round"/>
<path d="M12 0.857117V6.85712" stroke="#5C5C5C" stroke-width="2" stroke-linecap="round" stroke-linejoin="round"/>
<path d="M18 3.42853V6.8571" stroke="#5C5C5C" stroke-width="2" stroke-linecap="round" stroke-linejoin="round"/>
<path d="M12 19.7143C13.4202 19.7143 14.5714 18.563 14.5714 17.1428C14.5714 15.7227 13.4202 14.5714 12 14.5714C10.5799 14.5714 9.42859 15.7227 9.42859 17.1428C9.42859 18.563 10.5799 19.7143 12 19.7143Z" stroke="#5C5C5C" stroke-width="2" stroke-linecap="round" stroke-linejoin="round"/>
</g>
<defs>
<clipPath id="clip0_34_3843">
<rect width="24" height="24" fill="white"/>
</clipPath>
</defs>
</svg>
