<svg width="24" height="24" viewBox="0 0 24 24" fill="none" xmlns="http://www.w3.org/2000/svg">
<g clip-path="url(#clip0_34_3839)">
<path d="M1.71432 7.71426C1.48699 7.71426 1.26897 7.62395 1.10823 7.46321C0.947484 7.30246 0.857178 7.08445 0.857178 6.85712V1.71426C0.857178 1.48693 0.947484 1.26891 1.10823 1.10817C1.26897 0.947423 1.48699 0.857117 1.71432 0.857117H22.2857C22.5131 0.857117 22.7311 0.947423 22.8918 1.10817C23.0526 1.26891 23.1429 1.48693 23.1429 1.71426V6.85712C23.1429 7.08445 23.0526 7.30246 22.8918 7.46321C22.7311 7.62395 22.5131 7.71426 22.2857 7.71426" stroke="#5C5C5C" stroke-width="2" stroke-linecap="round" stroke-linejoin="round"/>
<path d="M17.1429 5.14282H6.85714C6.38376 5.14282 6 5.52658 6 5.99997V18C6 18.4734 6.38376 18.8571 6.85714 18.8571H17.1429C17.6162 18.8571 18 18.4734 18 18V5.99997C18 5.52658 17.6162 5.14282 17.1429 5.14282Z" stroke="#5C5C5C" stroke-width="2" stroke-linecap="round" stroke-linejoin="round"/>
<path d="M12 14.5714C13.4202 14.5714 14.5714 13.4201 14.5714 12C14.5714 10.5798 13.4202 9.42853 12 9.42853C10.5799 9.42853 9.42859 10.5798 9.42859 12C9.42859 13.4201 10.5799 14.5714 12 14.5714Z" stroke="#5C5C5C" stroke-width="2" stroke-linecap="round" stroke-linejoin="round"/>
<path d="M6 23.1428H18" stroke="#5C5C5C" stroke-width="2" stroke-linecap="round" stroke-linejoin="round"/>
</g>
<defs>
<clipPath id="clip0_34_3839">
<rect width="24" height="24" fill="white"/>
</clipPath>
</defs>
</svg>
