<svg width="24" height="24" viewBox="0 0 24 24" fill="none" xmlns="http://www.w3.org/2000/svg">
<g clip-path="url(#clip0_34_3846)">
<path d="M22.1314 9.42858H1.86856C0.908561 9.42858 0.497133 8.38287 1.25142 7.88572L11.3828 1.25144C11.5699 1.1414 11.783 1.08337 12 1.08337C12.217 1.08337 12.4301 1.1414 12.6171 1.25144L22.7486 7.88572C23.5028 8.38287 23.0914 9.42858 22.1314 9.42858Z" stroke="#5C5C5C" stroke-width="2" stroke-linecap="round" stroke-linejoin="round"/>
<path d="M22.2857 18.8572H1.71432C1.24093 18.8572 0.857178 19.2409 0.857178 19.7143V22.2857C0.857178 22.7591 1.24093 23.1429 1.71432 23.1429H22.2857C22.7591 23.1429 23.1429 22.7591 23.1429 22.2857V19.7143C23.1429 19.2409 22.7591 18.8572 22.2857 18.8572Z" stroke="#5C5C5C" stroke-width="2" stroke-linecap="round" stroke-linejoin="round"/>
<path d="M3.42859 9.42859V18.8572" stroke="#5C5C5C" stroke-width="2" stroke-linecap="round" stroke-linejoin="round"/>
<path d="M7.71436 9.42859V18.8572" stroke="#5C5C5C" stroke-width="2" stroke-linecap="round" stroke-linejoin="round"/>
<path d="M12 9.42859V18.8572" stroke="#5C5C5C" stroke-width="2" stroke-linecap="round" stroke-linejoin="round"/>
<path d="M16.2858 9.42859V18.8572" stroke="#5C5C5C" stroke-width="2" stroke-linecap="round" stroke-linejoin="round"/>
<path d="M20.5714 9.42859V18.8572" stroke="#5C5C5C" stroke-width="2" stroke-linecap="round" stroke-linejoin="round"/>
</g>
<defs>
<clipPath id="clip0_34_3846">
<rect width="24" height="24" fill="white"/>
</clipPath>
</defs>
</svg>
