<svg width="24" height="24" viewBox="0 0 24 24" fill="none" xmlns="http://www.w3.org/2000/svg">
<path d="M14.3077 1.99994H3.53846C3.13044 1.99994 2.73912 2.16203 2.4506 2.45054C2.16209 2.73906 2 3.13038 2 3.5384V20.4615C2 20.8695 2.16209 21.2608 2.4506 21.5493C2.73912 21.8379 3.13044 21.9999 3.53846 21.9999H20.4615C20.8696 21.9999 21.2609 21.8379 21.5494 21.5493C21.8379 21.2608 22 20.8695 22 20.4615V9.69225L14.3077 1.99994Z" stroke="#5C5C5C" stroke-width="2" stroke-linecap="round" stroke-linejoin="round"/>
<path d="M14.3077 8.92302V1.99994L22 9.69225H15.077C14.873 9.69225 14.6773 9.6112 14.533 9.46694C14.3888 9.32269 14.3077 9.12703 14.3077 8.92302Z" stroke="#5C5C5C" stroke-width="2" stroke-linecap="round" stroke-linejoin="round"/>
<path d="M8.15381 8.1537V5.84601" stroke="#5C5C5C" stroke-width="2" stroke-linecap="round" stroke-linejoin="round"/>
<path d="M5.84619 14.3077C5.84619 15.4615 6.87696 15.8461 8.15388 15.8461C9.43081 15.8461 10.4616 15.8461 10.4616 14.3077C10.4616 12 5.84619 12 5.84619 9.69227C5.84619 8.15381 6.87696 8.15381 8.15388 8.15381C9.43081 8.15381 10.4616 8.73842 10.4616 9.69227" stroke="#5C5C5C" stroke-width="2" stroke-linecap="round" stroke-linejoin="round"/>
<path d="M8.15381 15.846V18.1537" stroke="#5C5C5C" stroke-width="2" stroke-linecap="round" stroke-linejoin="round"/>
<path d="M14.3077 15.846H18.9231" stroke="#5C5C5C" stroke-width="2" stroke-linecap="round" stroke-linejoin="round"/>
</svg>
