<svg width="24" height="24" viewBox="0 0 24 24" fill="none" xmlns="http://www.w3.org/2000/svg">
<g clip-path="url(#clip0_34_3841)">
<path d="M17.1429 3H2.57146C1.62469 3 0.857178 3.76751 0.857178 4.71429V15C0.857178 15.9468 1.62469 16.7143 2.57146 16.7143H17.1429C18.0897 16.7143 18.8572 15.9468 18.8572 15V4.71429C18.8572 3.76751 18.0897 3 17.1429 3Z" stroke="#5C5C5C" stroke-width="2" stroke-linecap="round" stroke-linejoin="round"/>
<path d="M9.8572 12.4286C11.2774 12.4286 12.4286 11.2773 12.4286 9.85713C12.4286 8.43697 11.2774 7.28571 9.8572 7.28571C8.43703 7.28571 7.28577 8.43697 7.28577 9.85713C7.28577 11.2773 8.43703 12.4286 9.8572 12.4286Z" stroke="#5C5C5C" stroke-width="2" stroke-linecap="round" stroke-linejoin="round"/>
<path d="M6 21H21.4286C21.8832 21 22.3193 20.8194 22.6408 20.4979C22.9622 20.1764 23.1429 19.7404 23.1429 19.2857V10.7143" stroke="#5C5C5C" stroke-width="2" stroke-linecap="round" stroke-linejoin="round"/>
</g>
<defs>
<clipPath id="clip0_34_3841">
<rect width="24" height="24" fill="white"/>
</clipPath>
</defs>
</svg>
