<svg width="24" height="24" viewBox="0 0 24 24" fill="none" xmlns="http://www.w3.org/2000/svg">
<g clip-path="url(#clip0_34_3847)">
<path d="M15.2572 2.57143C13.254 1.33522 10.9223 0.737346 8.57146 0.857147C4.30289 0.857147 0.857178 2.4 0.857178 4.28572C0.857178 5.29715 1.85146 6.20572 3.42861 6.85715" stroke="#5C5C5C" stroke-width="2" stroke-linecap="round" stroke-linejoin="round"/>
<path d="M3.42861 17.1428C1.85146 16.4914 0.857178 15.5828 0.857178 14.5714V4.28571" stroke="#5C5C5C" stroke-width="2" stroke-linecap="round" stroke-linejoin="round"/>
<path d="M3.42861 12C1.85146 11.3486 0.857178 10.44 0.857178 9.42859" stroke="#5C5C5C" stroke-width="2" stroke-linecap="round" stroke-linejoin="round"/>
<path d="M15.4286 12.8571C19.6891 12.8571 23.1429 11.3221 23.1429 9.42857C23.1429 7.53502 19.6891 6 15.4286 6C11.1682 6 7.71436 7.53502 7.71436 9.42857C7.71436 11.3221 11.1682 12.8571 15.4286 12.8571Z" stroke="#5C5C5C" stroke-width="2" stroke-linecap="round" stroke-linejoin="round"/>
<path d="M7.71436 9.42859V19.7143C7.71436 21.6 11.1429 23.1429 15.4286 23.1429C19.7144 23.1429 23.1429 21.6 23.1429 19.7143V9.42859" stroke="#5C5C5C" stroke-width="2" stroke-linecap="round" stroke-linejoin="round"/>
<path d="M23.1429 14.5714C23.1429 16.4571 19.7144 18 15.4286 18C11.1429 18 7.71436 16.4571 7.71436 14.5714" stroke="#5C5C5C" stroke-width="2" stroke-linecap="round" stroke-linejoin="round"/>
</g>
<defs>
<clipPath id="clip0_34_3847">
<rect width="24" height="24" fill="white"/>
</clipPath>
</defs>
</svg>
