<svg width="24" height="24" viewBox="0 0 24 24" fill="none" xmlns="http://www.w3.org/2000/svg">
<path fill-rule="evenodd" clip-rule="evenodd" d="M6 5C5.45228 5 5 5.45228 5 6C5 6.26522 5.10536 6.51957 5.29289 6.70711C5.48043 6.89464 5.73478 7 6 7H17V5H6ZM19 7V4C19 3.44772 18.5523 3 18 3H6C4.34772 3 3 4.34772 3 6C3 6.79565 3.31607 7.55871 3.87868 8.12132C4.44129 8.68393 5.20435 9 6 9H19V12C19 12.5523 19.4477 13 20 13C20.5523 13 21 12.5523 21 12V8C21 7.44772 20.5523 7 20 7H19Z" fill="#5C5C5C"/>
<path fill-rule="evenodd" clip-rule="evenodd" d="M4 5C4.55228 5 5 5.44772 5 6V18C5 18.5477 5.45228 19 6 19H19V16C19 15.4477 19.4477 15 20 15C20.5523 15 21 15.4477 21 16V20C21 20.5523 20.5523 21 20 21H6C4.34772 21 3 19.6523 3 18V6C3 5.44772 3.44772 5 4 5Z" fill="#5C5C5C"/>
<path fill-rule="evenodd" clip-rule="evenodd" d="M15.8787 11.8787C16.4413 11.3161 17.2043 11 18 11H22C22.5523 11 23 11.4477 23 12V16C23 16.5523 22.5523 17 22 17H18C16.3477 17 15 15.6523 15 14C15 13.2043 15.3161 12.4413 15.8787 11.8787ZM18 13C17.7348 13 17.4804 13.1054 17.2929 13.2929C17.1054 13.4804 17 13.7348 17 14C17 14.5477 17.4523 15 18 15H21V13H18Z" fill="#5C5C5C"/>
</svg>
