<svg width="514" height="137" viewBox="0 0 514 137" fill="none" xmlns="http://www.w3.org/2000/svg">
<g clip-path="url(#clip0_535_3058)">
<path fill-rule="evenodd" clip-rule="evenodd" d="M122.972 61.65C122.972 92.8778 99.8158 118.682 69.7812 122.744L63.0497 136.243C62.5462 137.253 61.1091 137.253 60.6056 136.243L53.921 122.838C23.5322 119.1 0 93.1305 0 61.65C0 27.6017 27.5283 0 61.486 0C95.4441 0 122.972 27.6017 122.972 61.65ZM71.207 47.1497L62.7113 29.8893C62.2101 28.871 60.762 28.871 60.2608 29.8893L51.7649 47.1497C51.5659 47.5541 51.1812 47.8343 50.7361 47.8992L31.7388 50.667C30.618 50.8303 30.1705 52.2112 30.9815 53.0038L44.7281 66.4392C45.0501 66.7539 45.1971 67.2074 45.121 67.6518L41.876 86.623C41.6845 87.7423 42.856 88.5952 43.8585 88.067L60.8502 79.11C61.2483 78.9004 61.7238 78.9004 62.1219 79.11L79.1134 88.067C80.1163 88.5952 81.2873 87.7423 81.096 86.623L77.8509 67.6518C77.7751 67.2074 77.9219 66.7539 78.2437 66.4392L91.9906 53.0038C92.8016 52.2112 92.3541 50.8303 91.2337 50.667L72.2358 47.8992C71.7911 47.8343 71.4065 47.5541 71.207 47.1497Z" fill="#1FB1FF"/>
<path d="M134.586 58.8508C134.586 53.148 135.819 48.0759 138.283 43.6343C140.747 39.1379 144.17 35.6559 148.551 33.1884C152.987 30.666 157.998 29.4048 163.584 29.4048C170.43 29.4048 176.289 31.2143 181.163 34.8334C186.038 38.4525 189.296 43.3876 190.939 49.6387H175.495C174.345 47.226 172.702 45.389 170.566 44.1278C168.485 42.8666 166.103 42.236 163.42 42.236C159.093 42.236 155.588 43.744 152.905 46.7599C150.221 49.7757 148.88 53.8061 148.88 58.8508C148.88 63.8956 150.221 67.9259 152.905 70.942C155.588 73.9573 159.093 75.4657 163.42 75.4657C166.103 75.4657 168.485 74.8348 170.566 73.5737C172.702 72.3126 174.345 70.4755 175.495 68.063H190.939C189.296 74.3142 186.038 79.2489 181.163 82.8685C176.289 86.4325 170.43 88.2142 163.584 88.2142C157.998 88.2142 152.987 86.9805 148.551 84.5132C144.17 81.991 140.747 78.5091 138.283 74.0676C135.819 69.6261 134.586 64.5536 134.586 58.8508Z" fill="#1FB1FF"/>
<path d="M241.929 64.1149C241.929 65.431 241.847 66.8019 241.682 68.2275H209.891C210.111 71.079 211.015 73.2724 212.602 74.8074C214.245 76.2884 216.244 77.0282 218.599 77.0282C222.104 77.0282 224.542 75.5479 225.911 72.5867H240.861C240.094 75.6027 238.698 78.3167 236.671 80.73C234.7 83.1425 232.208 85.0345 229.196 86.4052C226.184 87.7759 222.817 88.4616 219.093 88.4616C214.601 88.4616 210.603 87.5019 207.099 85.5825C203.594 83.6631 200.856 80.9218 198.884 77.3577C196.912 73.793 195.927 69.6261 195.927 64.8552C195.927 60.0846 196.885 55.9172 198.802 52.353C200.773 48.7888 203.512 46.047 207.017 44.1279C210.521 42.2086 214.547 41.249 219.093 41.249C223.528 41.249 227.471 42.1812 230.921 44.0456C234.372 45.91 237.055 48.5694 238.972 52.024C240.943 55.4785 241.929 59.5089 241.929 64.1149ZM227.553 60.4136C227.553 58.0009 226.732 56.0817 225.089 54.656C223.446 53.2304 221.392 52.5175 218.928 52.5175C216.573 52.5175 214.574 53.2029 212.931 54.5738C211.343 55.9446 210.357 57.8912 209.974 60.4136H227.553Z" fill="#1FB1FF"/>
<path d="M262.565 26.9373V87.8032H248.518V26.9373H262.565Z" fill="#1FB1FF"/>
<path d="M315.133 64.1149C315.133 65.431 315.05 66.8019 314.886 68.2275H283.095C283.315 71.079 284.218 73.2724 285.806 74.8074C287.449 76.2884 289.448 77.0282 291.803 77.0282C295.308 77.0282 297.745 75.5479 299.114 72.5867H314.065C313.298 75.6027 311.902 78.3167 309.875 80.73C307.904 83.1425 305.412 85.0345 302.4 86.4052C299.388 87.7759 296.02 88.4616 292.296 88.4616C287.805 88.4616 283.807 87.5019 280.303 85.5825C276.798 83.6631 274.06 80.9218 272.088 77.3577C270.116 73.793 269.13 69.6261 269.13 64.8552C269.13 60.0846 270.089 55.9172 272.006 52.353C273.977 48.7888 276.715 46.047 280.221 44.1279C283.725 42.2086 287.751 41.249 292.296 41.249C296.732 41.249 300.675 42.1812 304.125 44.0456C307.575 45.91 310.259 48.5694 312.176 52.024C314.147 55.4785 315.133 59.5089 315.133 64.1149ZM300.757 60.4136C300.757 58.0009 299.936 56.0817 298.293 54.656C296.65 53.2304 294.596 52.5175 292.132 52.5175C289.777 52.5175 287.778 53.2029 286.135 54.5738C284.547 55.9446 283.561 57.8912 283.177 60.4136H300.757Z" fill="#1FB1FF"/>
<path d="M335.769 48.4049C337.083 46.2663 338.972 44.539 341.437 43.223C343.902 41.907 346.722 41.249 349.899 41.249C353.677 41.249 357.1 42.2086 360.167 44.1278C363.234 46.047 365.643 48.7887 367.395 52.3529C369.203 55.9171 370.106 60.0571 370.106 64.7729C370.106 69.4884 369.203 73.6559 367.395 77.2754C365.643 80.8395 363.234 83.6083 360.167 85.5824C357.1 87.5018 353.677 88.4615 349.899 88.4615C346.667 88.4615 343.847 87.8306 341.437 86.5695C339.028 85.2536 337.138 83.5261 335.769 81.3875V87.8032H321.722V26.9373H335.769V48.4049ZM355.813 64.7729C355.813 61.2635 354.827 58.5218 352.855 56.5477C350.939 54.5188 348.557 53.5044 345.709 53.5044C342.916 53.5044 340.534 54.5188 338.562 56.5477C336.646 58.5766 335.687 61.3458 335.687 64.8552C335.687 68.3645 336.646 71.1337 338.562 73.1627C340.534 75.1917 342.916 76.2062 345.709 76.2062C348.501 76.2062 350.884 75.1917 352.855 73.1627C354.827 71.0789 355.813 68.2823 355.813 64.7729Z" fill="#1FB1FF"/>
<path d="M390.701 49.5564C392.344 47.0341 394.398 45.06 396.862 43.6343C399.327 42.1539 402.065 41.4136 405.077 41.4136V56.3011H401.216C397.711 56.3011 395.083 57.0688 393.33 58.6041C391.578 60.0846 390.701 62.7167 390.701 66.5003V87.8033H376.655V41.907H390.701V49.5564Z" fill="#1FB1FF"/>
<path d="M418.035 37.1364C415.57 37.1364 413.544 36.4236 411.956 34.9979C410.423 33.5174 409.656 31.7078 409.656 29.5693C409.656 27.3759 410.423 25.5664 411.956 24.1407C413.544 22.6602 415.57 21.9199 418.035 21.9199C420.444 21.9199 422.416 22.6602 423.949 24.1407C425.537 25.5664 426.331 27.3759 426.331 29.5693C426.331 31.7078 425.537 33.5174 423.949 34.9979C422.416 36.4236 420.444 37.1364 418.035 37.1364ZM425.017 41.907V87.8032H410.97V41.907H425.017Z" fill="#1FB1FF"/>
<path d="M459.923 75.8768V87.8034H452.776C447.683 87.8034 443.713 86.5697 440.865 84.1023C438.018 81.5795 436.593 77.4948 436.593 71.847V53.5869H431.008V41.9071H436.593V30.7209H450.641V41.9071H459.841V53.5869H450.641V72.0114C450.641 73.3821 450.969 74.3691 451.627 74.9719C452.284 75.5754 453.379 75.8768 454.912 75.8768H459.923Z" fill="#1FB1FF"/>
<path d="M513.75 41.907L484.998 109.6H469.884L480.399 86.2407L461.751 41.907H477.441L488.038 70.6125L498.553 41.907H513.75Z" fill="#1FB1FF"/>
</g>
<path d="M504.062 100.737H501.457L501.433 99.2494H503.76C504.114 99.2418 504.444 99.1884 504.749 99.0893C505.055 98.9825 505.3 98.83 505.485 98.6317C505.67 98.4258 505.762 98.1741 505.762 97.8767C505.762 97.503 505.694 97.2056 505.557 96.9844C505.429 96.7632 505.204 96.6069 504.882 96.5154C504.568 96.4162 504.142 96.3667 503.604 96.3667H502V104.592H500.251V94.891H503.604C504.4 94.891 505.087 95.0015 505.666 95.2227C506.253 95.4362 506.703 95.7642 507.017 96.2065C507.338 96.6412 507.499 97.1865 507.499 97.8424C507.499 98.2542 507.398 98.6202 507.197 98.9405C506.996 99.2609 506.699 99.5392 506.305 99.7756C505.919 100.004 505.445 100.191 504.882 100.336C504.858 100.336 504.83 100.363 504.798 100.416C504.773 100.47 504.749 100.496 504.725 100.496C504.588 100.573 504.5 100.63 504.46 100.668C504.428 100.698 504.392 100.717 504.351 100.725C504.319 100.733 504.223 100.737 504.062 100.737ZM503.941 100.737L504.195 99.604C505.449 99.604 506.305 99.8633 506.763 100.382C507.222 100.893 507.451 101.545 507.451 102.338V102.956C507.451 103.238 507.463 103.509 507.487 103.768C507.519 104.02 507.575 104.233 507.656 104.409V104.592H505.859C505.778 104.393 505.73 104.111 505.714 103.745C505.706 103.379 505.702 103.112 505.702 102.944V102.35C505.702 101.793 505.569 101.385 505.304 101.126C505.039 100.866 504.584 100.737 503.941 100.737ZM496.621 99.8786C496.621 100.893 496.802 101.839 497.164 102.716C497.533 103.585 498.048 104.348 498.707 105.004C499.367 105.652 500.126 106.159 500.987 106.525C501.855 106.883 502.78 107.063 503.76 107.063C504.749 107.063 505.674 106.883 506.534 106.525C507.394 106.159 508.15 105.652 508.801 105.004C509.453 104.348 509.963 103.585 510.333 102.716C510.703 101.839 510.888 100.893 510.888 99.8786C510.888 98.8643 510.703 97.9224 510.333 97.053C509.963 96.1836 509.453 95.4248 508.801 94.7766C508.15 94.1283 507.394 93.625 506.534 93.2665C505.674 92.9005 504.749 92.7174 503.76 92.7174C502.78 92.7174 501.855 92.9005 500.987 93.2665C500.126 93.625 499.367 94.1283 498.707 94.7766C498.048 95.4248 497.533 96.1836 497.164 97.053C496.802 97.9224 496.621 98.8643 496.621 99.8786ZM495.198 99.8786C495.198 98.666 495.419 97.5411 495.861 96.5039C496.303 95.4667 496.918 94.563 497.706 93.7928C498.494 93.0149 499.403 92.4124 500.432 91.9853C501.469 91.5506 502.579 91.3333 503.76 91.3333C504.942 91.3333 506.048 91.5506 507.077 91.9853C508.114 92.4124 509.022 93.0149 509.802 93.7928C510.59 94.563 511.205 95.4667 511.648 96.5039C512.098 97.5411 512.323 98.666 512.323 99.8786C512.323 101.091 512.098 102.216 511.648 103.253C511.205 104.29 510.59 105.202 509.802 105.987C509.022 106.765 508.114 107.371 507.077 107.806C506.048 108.241 504.942 108.458 503.76 108.458C502.579 108.458 501.469 108.241 500.432 107.806C499.403 107.371 498.494 106.765 497.706 105.987C496.918 105.202 496.303 104.29 495.861 103.253C495.419 102.216 495.198 101.091 495.198 99.8786Z" fill="#1FB1FF"/>
<defs>
<clipPath id="clip0_535_3058">
<rect width="513.75" height="137" fill="white"/>
</clipPath>
</defs>
</svg>
