<svg width="131" height="48" viewBox="0 0 131 48" fill="none" xmlns="http://www.w3.org/2000/svg">
<g clip-path="url(#clip0_415_2291)">
<path fill-rule="evenodd" clip-rule="evenodd" d="M43.2 21.6C43.2 32.5411 35.0652 41.5822 24.5141 43.0051L22.1493 47.7348C21.9724 48.0886 21.4676 48.0886 21.2907 47.7348L18.9424 43.0382C8.26685 41.7283 0 32.6297 0 21.6C0 9.67066 9.67066 0 21.6 0C33.5294 0 43.2 9.67066 43.2 21.6ZM25.015 16.5196L22.0304 10.4722C21.8544 10.1154 21.3456 10.1154 21.1696 10.4722L18.185 16.5196C18.1151 16.6613 17.9799 16.7595 17.8236 16.7822L11.1498 17.7519C10.7561 17.8092 10.5989 18.293 10.8838 18.5707L15.7129 23.278C15.8261 23.3882 15.8777 23.5471 15.851 23.7028L14.711 30.3497C14.6437 30.7418 15.0553 31.0406 15.4074 30.8556L21.3766 27.7174C21.5165 27.6439 21.6835 27.6439 21.8234 27.7174L27.7925 30.8556C28.1448 31.0406 28.5562 30.7418 28.489 30.3497L27.349 23.7028C27.3223 23.5471 27.3739 23.3882 27.487 23.278L32.3162 18.5707C32.6011 18.293 32.4439 17.8092 32.0503 17.7519L25.3764 16.7822C25.2202 16.7595 25.085 16.6613 25.015 16.5196Z" fill="#1FB1FF"/>
<path d="M62.9789 10.5601V14.5002H57.6012V30.7498H52.6575V14.5002H47.2798V10.5601H62.9789Z" fill="#1FB1FF"/>
<path d="M72.5145 30.98C70.9341 30.98 69.5078 30.6444 68.2358 29.9732C66.9828 29.3021 65.9901 28.3436 65.2579 27.0972C64.5446 25.8509 64.188 24.3939 64.188 22.7257C64.188 21.0767 64.5542 19.6291 65.2867 18.3828C66.0192 17.1174 67.0214 16.1491 68.2937 15.478C69.5657 14.807 70.992 14.4714 72.5724 14.4714C74.153 14.4714 75.5793 14.807 76.8513 15.478C78.1236 16.1491 79.1258 17.1174 79.8583 18.3828C80.5905 19.6291 80.9568 21.0767 80.9568 22.7257C80.9568 24.3747 80.5809 25.8317 79.8293 27.0972C79.0968 28.3436 78.0849 29.3021 76.7935 29.9732C75.5215 30.6444 74.0952 30.98 72.5145 30.98ZM72.5145 26.7233C73.4592 26.7233 74.2591 26.3782 74.9143 25.688C75.5889 24.9977 75.9261 24.0104 75.9261 22.7257C75.9261 21.441 75.5985 20.4536 74.9433 19.7633C74.3071 19.0731 73.517 18.728 72.5724 18.728C71.6088 18.728 70.8089 19.0731 70.1729 19.7633C69.5369 20.4344 69.2186 21.4219 69.2186 22.7257C69.2186 24.0104 69.527 24.9977 70.1438 25.688C70.7801 26.3782 71.5701 26.7233 72.5145 26.7233Z" fill="#1FB1FF"/>
<path d="M88.2345 16.9736C88.7162 16.2258 89.3812 15.6219 90.2294 15.1617C91.0773 14.7015 92.07 14.4714 93.2073 14.4714C94.5372 14.4714 95.7417 14.807 96.8212 15.478C97.9005 16.1491 98.7487 17.1078 99.3655 18.3541C100.001 19.6004 100.319 21.048 100.319 22.6969C100.319 24.3459 100.001 25.8029 99.3655 27.0684C98.7487 28.3148 97.9005 29.2829 96.8212 29.9732C95.7417 30.6444 94.5372 30.98 93.2073 30.98C92.0894 30.98 91.0968 30.7498 90.2294 30.2897C89.3812 29.8294 88.7162 29.2352 88.2345 28.5065V38.4H83.2905V14.7015H88.2345V16.9736ZM95.2888 22.6969C95.2888 21.4698 94.942 20.5111 94.248 19.8209C93.5736 19.1115 92.735 18.7567 91.7328 18.7567C90.7497 18.7567 89.9114 19.1115 89.2173 19.8209C88.5429 20.5303 88.2055 21.4985 88.2055 22.7257C88.2055 23.9528 88.5429 24.9209 89.2173 25.6304C89.9114 26.3398 90.7497 26.6945 91.7328 26.6945C92.7158 26.6945 93.5541 26.3398 94.248 25.6304C94.942 24.902 95.2888 23.924 95.2888 22.6969Z" fill="#1FB1FF"/>
<path d="M111.615 26.5795V30.7497H109.1C107.308 30.7497 105.91 30.3182 104.908 29.4554C103.906 28.5734 103.405 27.1452 103.405 25.1702V18.7854H101.438V14.7014H103.405V10.79H108.349V14.7014H111.587V18.7854H108.349V25.2278C108.349 25.7071 108.464 26.0522 108.695 26.2632C108.927 26.4741 109.312 26.5795 109.852 26.5795H111.615Z" fill="#1FB1FF"/>
<path d="M130.56 14.7014L120.441 38.3711H115.122L118.822 30.2032L112.259 14.7014H117.781L121.511 24.7389L125.212 14.7014H130.56Z" fill="#1FB1FF"/>
</g>
<defs>
<clipPath id="clip0_415_2291">
<rect width="130.56" height="48" fill="white"/>
</clipPath>
</defs>
</svg>
