<svg width="542" height="200" viewBox="0 0 542 200" fill="none" xmlns="http://www.w3.org/2000/svg">
<g clip-path="url(#clip0_358_36638)">
<path fill-rule="evenodd" clip-rule="evenodd" d="M179.338 90C179.338 135.588 145.568 173.259 101.766 179.188L91.9495 198.895C91.2152 200.369 89.1193 200.369 88.3851 198.895L78.6365 179.326C34.3186 173.868 0 135.957 0 90C0 40.2944 40.1463 0 89.6691 0C139.192 0 179.338 40.2944 179.338 90ZM103.846 68.8317L91.456 43.634C90.725 42.1475 88.6132 42.1475 87.8822 43.634L75.4921 68.8317C75.2019 69.422 74.6409 69.8311 73.9918 69.9258L46.2867 73.9664C44.6522 74.2048 43.9996 76.2207 45.1824 77.3778L65.2299 96.9915C65.6996 97.451 65.9139 98.113 65.803 98.7617L61.0704 126.457C60.7913 128.091 62.4998 129.336 63.9617 128.565L88.7418 115.489C89.3224 115.183 90.0158 115.183 90.5964 115.489L115.376 128.565C116.839 129.336 118.547 128.091 118.268 126.457L113.535 98.7617C113.424 98.113 113.639 97.451 114.108 96.9915L134.156 77.3778C135.339 76.2207 134.686 74.2048 133.052 73.9664L105.346 69.9258C104.698 69.8311 104.137 69.422 103.846 68.8317Z" fill="white"/>
<path d="M207.357 181.516H201.457V178.406H207.357C208.384 178.406 209.214 178.24 209.848 177.906C210.48 177.573 210.943 177.115 211.233 176.531C211.534 175.938 211.685 175.26 211.685 174.5C211.685 173.781 211.534 173.109 211.233 172.484C210.943 171.849 210.48 171.339 209.848 170.953C209.214 170.568 208.384 170.375 207.357 170.375H202.655V190H198.748V167.25H207.357C209.11 167.25 210.6 167.562 211.824 168.188C213.06 168.802 213.998 169.656 214.642 170.75C215.286 171.833 215.607 173.073 215.607 174.469C215.607 175.938 215.286 177.198 214.642 178.25C213.998 179.302 213.06 180.109 211.824 180.672C210.6 181.234 209.11 181.516 207.357 181.516Z" fill="white"/>
<path d="M217.483 181.734V181.375C217.483 180.156 217.66 179.026 218.013 177.984C218.366 176.932 218.874 176.021 219.539 175.25C220.213 174.469 221.033 173.865 221.998 173.438C222.974 173 224.074 172.781 225.299 172.781C226.534 172.781 227.634 173 228.598 173.438C229.575 173.865 230.4 174.469 231.074 175.25C231.749 176.021 232.263 176.932 232.616 177.984C232.968 179.026 233.145 180.156 233.145 181.375V181.734C233.145 182.953 232.968 184.083 232.616 185.125C232.263 186.167 231.749 187.078 231.074 187.859C230.4 188.63 229.58 189.234 228.614 189.672C227.649 190.099 226.554 190.312 225.33 190.312C224.095 190.312 222.989 190.099 222.014 189.672C221.048 189.234 220.228 188.63 219.554 187.859C218.879 187.078 218.366 186.167 218.013 185.125C217.66 184.083 217.483 182.953 217.483 181.734ZM221.236 181.375V181.734C221.236 182.495 221.313 183.214 221.469 183.891C221.624 184.568 221.868 185.161 222.201 185.672C222.533 186.182 222.958 186.583 223.477 186.875C223.996 187.167 224.613 187.312 225.33 187.312C226.025 187.312 226.627 187.167 227.136 186.875C227.655 186.583 228.08 186.182 228.412 185.672C228.744 185.161 228.988 184.568 229.143 183.891C229.31 183.214 229.393 182.495 229.393 181.734V181.375C229.393 180.625 229.31 179.917 229.143 179.25C228.988 178.573 228.739 177.974 228.396 177.453C228.064 176.932 227.639 176.526 227.12 176.234C226.612 175.932 226.004 175.781 225.299 175.781C224.593 175.781 223.98 175.932 223.461 176.234C222.953 176.526 222.533 176.932 222.201 177.453C221.868 177.974 221.624 178.573 221.469 179.25C221.313 179.917 221.236 180.625 221.236 181.375Z" fill="white"/>
<path d="M239.737 176.312V190H235.986V173.094H239.567L239.737 176.312ZM244.89 172.984L244.859 176.484C244.631 176.443 244.382 176.411 244.112 176.391C243.853 176.37 243.593 176.359 243.334 176.359C242.69 176.359 242.125 176.453 241.637 176.641C241.149 176.818 240.74 177.078 240.407 177.422C240.085 177.755 239.836 178.161 239.66 178.641C239.483 179.12 239.38 179.656 239.349 180.25L238.492 180.312C238.492 179.25 238.597 178.266 238.804 177.359C239.011 176.453 239.323 175.656 239.737 174.969C240.164 174.281 240.693 173.745 241.326 173.359C241.969 172.974 242.711 172.781 243.552 172.781C243.78 172.781 244.025 172.802 244.284 172.844C244.554 172.885 244.756 172.932 244.89 172.984Z" fill="white"/>
<path d="M263.495 167.25V190H259.618V167.25H263.495ZM270.608 167.25V170.375H252.566V167.25H270.608Z" fill="white"/>
<path d="M280.316 186.609V178.547C280.316 177.943 280.207 177.422 279.989 176.984C279.771 176.547 279.439 176.208 278.993 175.969C278.556 175.729 278.006 175.609 277.343 175.609C276.73 175.609 276.201 175.714 275.754 175.922C275.308 176.13 274.96 176.411 274.711 176.766C274.462 177.12 274.338 177.521 274.338 177.969H270.601C270.601 177.302 270.762 176.656 271.084 176.031C271.406 175.406 271.873 174.849 272.486 174.359C273.097 173.87 273.83 173.484 274.68 173.203C275.531 172.922 276.486 172.781 277.545 172.781C278.811 172.781 279.932 172.995 280.907 173.422C281.893 173.849 282.666 174.495 283.227 175.359C283.798 176.214 284.083 177.286 284.083 178.578V186.094C284.083 186.865 284.135 187.557 284.238 188.172C284.353 188.776 284.513 189.302 284.721 189.75V190H280.876C280.699 189.594 280.56 189.078 280.456 188.453C280.362 187.818 280.316 187.203 280.316 186.609ZM280.861 179.719L280.892 182.047H278.198C277.503 182.047 276.89 182.115 276.361 182.25C275.832 182.375 275.391 182.562 275.038 182.812C274.685 183.062 274.42 183.365 274.244 183.719C274.068 184.073 273.98 184.474 273.98 184.922C273.98 185.37 274.084 185.781 274.291 186.156C274.498 186.521 274.799 186.807 275.194 187.016C275.599 187.224 276.086 187.328 276.657 187.328C277.425 187.328 278.095 187.172 278.666 186.859C279.247 186.536 279.703 186.146 280.036 185.688C280.367 185.219 280.544 184.776 280.565 184.359L281.779 186.031C281.655 186.458 281.441 186.917 281.141 187.406C280.84 187.896 280.445 188.365 279.958 188.812C279.48 189.25 278.904 189.609 278.229 189.891C277.566 190.172 276.798 190.312 275.926 190.312C274.826 190.312 273.844 190.094 272.984 189.656C272.122 189.208 271.447 188.609 270.959 187.859C270.472 187.099 270.228 186.24 270.228 185.281C270.228 184.385 270.394 183.594 270.726 182.906C271.069 182.208 271.567 181.625 272.22 181.156C272.885 180.688 273.694 180.333 274.649 180.094C275.604 179.844 276.694 179.719 277.918 179.719H280.861Z" fill="white"/>
<path d="M291.704 166V190H287.937V166H291.704Z" fill="white"/>
<path d="M302.92 190.312C301.675 190.312 300.549 190.109 299.542 189.703C298.545 189.286 297.694 188.708 296.989 187.969C296.294 187.229 295.76 186.359 295.386 185.359C295.012 184.359 294.825 183.281 294.825 182.125V181.5C294.825 180.177 295.017 178.979 295.401 177.906C295.786 176.833 296.32 175.917 297.005 175.156C297.69 174.385 298.5 173.797 299.433 173.391C300.368 172.984 301.379 172.781 302.469 172.781C303.672 172.781 304.727 172.984 305.629 173.391C306.532 173.797 307.279 174.37 307.871 175.109C308.473 175.839 308.919 176.708 309.21 177.719C309.511 178.729 309.661 179.844 309.661 181.062V182.672H296.646V179.969H305.956V179.672C305.935 178.995 305.801 178.359 305.551 177.766C305.312 177.172 304.944 176.693 304.446 176.328C303.947 175.964 303.284 175.781 302.453 175.781C301.83 175.781 301.275 175.917 300.787 176.188C300.31 176.448 299.91 176.828 299.589 177.328C299.267 177.828 299.018 178.432 298.841 179.141C298.676 179.839 298.592 180.625 298.592 181.5V182.125C298.592 182.865 298.691 183.552 298.888 184.188C299.096 184.812 299.397 185.359 299.791 185.828C300.185 186.297 300.663 186.667 301.223 186.938C301.783 187.198 302.422 187.328 303.138 187.328C304.041 187.328 304.845 187.146 305.551 186.781C306.257 186.417 306.87 185.901 307.388 185.234L309.365 187.156C309.002 187.688 308.529 188.198 307.949 188.688C307.368 189.167 306.656 189.557 305.816 189.859C304.986 190.161 304.02 190.312 302.92 190.312Z" fill="white"/>
<path d="M315.99 176.703V190H312.238V173.094H315.772L315.99 176.703ZM315.32 180.922L314.106 180.906C314.116 179.708 314.282 178.609 314.604 177.609C314.936 176.609 315.393 175.75 315.974 175.031C316.566 174.312 317.271 173.76 318.091 173.375C318.911 172.979 319.825 172.781 320.831 172.781C321.64 172.781 322.372 172.896 323.026 173.125C323.691 173.344 324.255 173.703 324.723 174.203C325.2 174.703 325.564 175.354 325.813 176.156C326.062 176.948 326.186 177.922 326.186 179.078V190H322.419V179.062C322.419 178.25 322.3 177.609 322.061 177.141C321.832 176.661 321.496 176.323 321.049 176.125C320.613 175.917 320.068 175.812 319.414 175.812C318.771 175.812 318.195 175.948 317.687 176.219C317.178 176.49 316.747 176.859 316.395 177.328C316.052 177.797 315.787 178.339 315.6 178.953C315.413 179.568 315.32 180.224 315.32 180.922Z" fill="white"/>
<path d="M337.419 173.094V175.844H327.922V173.094H337.419ZM330.662 168.953H334.414V185.328C334.414 185.849 334.487 186.25 334.632 186.531C334.788 186.802 335.001 186.984 335.27 187.078C335.54 187.172 335.857 187.219 336.22 187.219C336.479 187.219 336.728 187.203 336.968 187.172C337.206 187.141 337.398 187.109 337.543 187.078L337.558 189.953C337.248 190.047 336.884 190.13 336.469 190.203C336.064 190.276 335.598 190.312 335.068 190.312C334.207 190.312 333.444 190.161 332.779 189.859C332.115 189.547 331.596 189.042 331.223 188.344C330.849 187.646 330.662 186.719 330.662 185.562V168.953Z" fill="white"/>
<path d="M344.883 188.156L349.46 173.094H353.477L346.721 192.578C346.565 192.995 346.363 193.448 346.114 193.938C345.865 194.427 345.537 194.891 345.132 195.328C344.738 195.776 344.246 196.135 343.654 196.406C343.062 196.688 342.346 196.828 341.506 196.828C341.173 196.828 340.851 196.797 340.54 196.734C340.239 196.682 339.954 196.625 339.684 196.562L339.669 193.688C339.772 193.698 339.897 193.708 340.042 193.719C340.198 193.729 340.322 193.734 340.416 193.734C341.039 193.734 341.558 193.656 341.972 193.5C342.388 193.354 342.725 193.115 342.984 192.781C343.254 192.448 343.483 192 343.669 191.438L344.883 188.156ZM342.299 173.094L346.3 185.75L346.97 189.719L344.37 190.391L338.252 173.094H342.299Z" fill="white"/>
<path d="M261.448 44V60.4174H239.124V128.124H218.6V60.4174H196.276V44H261.448Z" fill="white"/>
<path d="M301.033 129.083C294.472 129.083 288.551 127.685 283.271 124.888C278.069 122.092 273.948 118.098 270.908 112.905C267.947 107.712 266.467 101.64 266.467 94.6901C266.467 87.8196 267.987 81.7879 271.028 76.595C274.069 71.3223 278.229 67.2879 283.511 64.4917C288.791 61.6956 294.713 60.2975 301.273 60.2975C307.835 60.2975 313.756 61.6956 319.037 64.4917C324.318 67.2879 328.479 71.3223 331.52 76.595C334.559 81.7879 336.08 87.8196 336.08 94.6901C336.08 101.561 334.52 107.632 331.399 112.905C328.358 118.098 324.158 122.092 318.797 124.888C313.516 127.685 307.595 129.083 301.033 129.083ZM301.033 111.347C304.955 111.347 308.275 109.909 310.995 107.033C313.796 104.157 315.196 100.043 315.196 94.6901C315.196 89.3375 313.836 85.2231 311.116 82.3471C308.475 79.4711 305.195 78.0331 301.273 78.0331C297.273 78.0331 293.952 79.4711 291.312 82.3471C288.672 85.1433 287.351 89.2576 287.351 94.6901C287.351 100.043 288.631 104.157 291.191 107.033C293.833 109.909 297.113 111.347 301.033 111.347Z" fill="white"/>
<path d="M366.292 70.7231C368.292 67.6074 371.053 65.0909 374.574 63.1735C378.094 61.2562 382.215 60.2975 386.936 60.2975C392.457 60.2975 397.457 61.6956 401.939 64.4917C406.419 67.2879 409.94 71.2824 412.501 76.4752C415.141 81.668 416.461 87.6997 416.461 94.5703C416.461 101.441 415.141 107.512 412.501 112.785C409.94 117.978 406.419 122.012 401.939 124.888C397.457 127.685 392.457 129.083 386.936 129.083C382.295 129.083 378.175 128.124 374.574 126.207C371.053 124.289 368.292 121.813 366.292 118.777V160H345.768V61.2562H366.292V70.7231ZM395.577 94.5703C395.577 89.4573 394.138 85.4628 391.256 82.5868C388.457 79.6309 384.975 78.1529 380.815 78.1529C376.734 78.1529 373.254 79.6309 370.372 82.5868C367.573 85.5427 366.172 89.5771 366.172 94.6901C366.172 99.803 367.573 103.837 370.372 106.793C373.254 109.749 376.734 111.227 380.815 111.227C384.896 111.227 388.376 109.749 391.256 106.793C394.138 103.758 395.577 99.6832 395.577 94.5703Z" fill="white"/>
<path d="M463.355 110.748V128.124H452.914C445.472 128.124 439.671 126.326 435.51 122.731C431.349 119.056 429.269 113.105 429.269 104.876V78.2727H421.107V61.2562H429.269V44.9587H449.793V61.2562H463.236V78.2727H449.793V105.116C449.793 107.113 450.272 108.551 451.233 109.43C452.193 110.309 453.793 110.748 456.034 110.748H463.355Z" fill="white"/>
<path d="M542 61.2562L499.992 159.88H477.908L493.271 125.847L466.026 61.2562H488.95L504.433 103.079L519.796 61.2562H542Z" fill="white"/>
</g>
<defs>
<clipPath id="clip0_358_36638">
<rect width="542" height="200" fill="white"/>
</clipPath>
</defs>
</svg>
