<svg width="72" height="81" viewBox="0 0 72 81" fill="none" xmlns="http://www.w3.org/2000/svg">
<path fill-rule="evenodd" clip-rule="evenodd" d="M72 36.75C72 54.9852 58.4419 70.0534 40.8568 72.4254L36.9155 80.3083C36.6207 80.8974 35.7793 80.8974 35.4845 80.3083L31.5707 72.4803C13.7781 70.2974 0 55.1328 0 36.75C0 16.8678 16.1177 0.75 36 0.75C55.8824 0.75 72 16.8678 72 36.75ZM41.6916 28.2827L36.7174 18.2036C36.424 17.609 35.5761 17.609 35.2826 18.2036L30.3083 28.2827C30.1918 28.5188 29.9665 28.6825 29.7059 28.7203L18.583 30.3366C17.9268 30.4319 17.6648 31.2383 18.1396 31.7011L26.1882 39.5466C26.3768 39.7304 26.4628 39.9952 26.4183 40.2547L24.5183 51.3328C24.4062 51.9864 25.0922 52.4844 25.6791 52.176L35.6277 46.9456C35.8608 46.8232 36.1392 46.8232 36.3723 46.9456L46.3208 52.176C46.908 52.4844 47.5936 51.9864 47.4816 51.3328L45.5816 40.2547C45.5372 39.9952 45.6232 39.7304 45.8116 39.5466L53.8604 31.7011C54.3352 31.2383 54.0732 30.4319 53.4172 30.3366L42.294 28.7203C42.0336 28.6825 41.8084 28.5188 41.6916 28.2827Z" fill="#1FB0FF"/>
</svg>
