<svg width="36" height="41" viewBox="0 0 36 41" fill="none" xmlns="http://www.w3.org/2000/svg">
<path fill-rule="evenodd" clip-rule="evenodd" d="M36 18.75C36 27.8676 29.2209 35.4017 20.4284 36.5877L18.4578 40.5291C18.3104 40.8237 17.8896 40.8237 17.7422 40.5291L15.7853 36.6151C6.88904 35.5237 0 27.9414 0 18.75C0 8.80889 8.05887 0.75 18 0.75C27.9412 0.75 36 8.80889 36 18.75ZM20.8458 14.5163L18.3587 9.4768C18.212 9.17949 17.7881 9.17949 17.6413 9.4768L15.1541 14.5163C15.0959 14.6344 14.9833 14.7162 14.8529 14.7352L9.29149 15.5433C8.96341 15.591 8.83239 15.9941 9.06982 16.2256L13.0941 20.1483C13.1884 20.2402 13.2314 20.3726 13.2092 20.5023L12.2592 26.0414C12.2031 26.3682 12.5461 26.6172 12.8395 26.463L17.8139 23.8478C17.9304 23.7866 18.0696 23.7866 18.1862 23.8478L23.1604 26.463C23.454 26.6172 23.7968 26.3682 23.7408 26.0414L22.7908 20.5023C22.7686 20.3726 22.8116 20.2402 22.9058 20.1483L26.9302 16.2256C27.1676 15.9941 27.0366 15.591 26.7086 15.5433L21.147 14.7352C21.0168 14.7162 20.9042 14.6344 20.8458 14.5163Z" fill="#1FB0FF"/>
</svg>
